<?xml version="1.0" encoding="UTF-8"?>
<!DOCTYPE svg PUBLIC "-//W3C//DTD SVG 1.1//EN" "http://www.w3.org/Graphics/SVG/1.1/DTD/svg11.dtd">
<!-- Creator: CorelDRAW X8 -->
<svg xmlns="http://www.w3.org/2000/svg" xml:space="preserve" width="297mm" height="210mm" version="1.1" style="shape-rendering:geometricPrecision; text-rendering:geometricPrecision; image-rendering:optimizeQuality; fill-rule:evenodd; clip-rule:evenodd"
viewBox="0 0 29700 21000"
 xmlns:xlink="http://www.w3.org/1999/xlink">
 <defs>
  <style type="text/css">
   <![CDATA[
    .str0 {stroke:#FFF8AF;stroke-width:20}
    .fil0 {fill:#FFF8AF}
    .fil2 {fill:#2F758E}
    .fil1 {fill:#624E22}
   ]]>
  </style>
 </defs>
 <g id="Capa_x0020_1">
  <metadata id="CorelCorpID_0Corel-Layer"/>
  <rect class="fil0 str0" x="5920" y="362" width="20000" height="20000"/>
  <path class="fil1" d="M18290 13843c-1013,-746 -5112,-2587 -6387,-2041 385,1518 528,3482 431,5031 555,177 3236,-907 3777,-1165 726,-346 1421,-843 2018,-1377 443,-371 217,-382 161,-448z"/>
  <path class="fil2" d="M10722 16770c81,26 192,27 236,-44 681,-1245 1031,-2586 1019,-4417 7,-273 -39,-442 -74,-507 -905,-317 -2894,466 -3644,969 -185,124 -540,330 -1237,1011 279,1630 2310,2559 3700,2988zm-1280 -3549c293,-134 898,454 307,721 -430,195 -867,-465 -307,-721z"/>
  <path class="fil1" d="M18757 13528c-196,426 -292,338 -8,844 96,171 1979,2472 2014,2472 -251,-2162 -187,-4198 -49,-6157l-1957 2841z"/>
  <path class="fil1" d="M9453 13208c-590,270 -130,965 322,760 520,-326 43,-921 -322,-760z"/>
  <path class="fil2" d="M13024 6501c1014,-745 5113,-2586 6387,-2040 -385,1517 -528,3482 -430,5030 -556,177 -3236,-907 -3777,-1165 -726,-346 -1422,-842 -2019,-1377 -443,-370 -217,-381 -161,-448z"/>
  <path class="fil1" d="M20592 9428c-80,26 -192,27 -235,-44 -681,-1245 -1031,-2586 -1020,-4417 -6,-273 39,-441 74,-506 905,-317 2894,466 3644,968 185,124 540,330 1237,1011 -279,1631 -2310,2560 -3700,2988zm1280 -3549c-292,-134 -898,454 -307,722 430,194 867,-466 307,-722z"/>
  <path class="fil2" d="M12558 6187c195,426 291,338 7,844 -96,170 -1978,2472 -2014,2471 252,-2162 188,-4197 49,-6156l1958 2841z"/>
  <path class="fil2" d="M21862 5867c589,269 130,964 -323,760 -520,-327 -42,-922 323,-760z"/>
 </g>
</svg>
