<?xml version="1.0" encoding="UTF-8"?>
<!DOCTYPE svg PUBLIC "-//W3C//DTD SVG 1.1//EN" "http://www.w3.org/Graphics/SVG/1.1/DTD/svg11.dtd">
<!-- Creator: CorelDRAW X8 -->
<svg xmlns="http://www.w3.org/2000/svg" xml:space="preserve" width="297mm" height="210mm" version="1.1" style="shape-rendering:geometricPrecision; text-rendering:geometricPrecision; image-rendering:optimizeQuality; fill-rule:evenodd; clip-rule:evenodd"
viewBox="0 0 29700 21000"
 xmlns:xlink="http://www.w3.org/1999/xlink">
 <defs>
  <style type="text/css">
   <![CDATA[
    .str1 {stroke:#373435;stroke-width:20}
    .str0 {stroke:#99D2CB;stroke-width:20}
    .str3 {stroke:#E88B84;stroke-width:20}
    .str2 {stroke:#F5A8A2;stroke-width:20}
    .fil1 {fill:none}
    .fil0 {fill:#99D2CB}
    .fil3 {fill:#E88B84}
    .fil2 {fill:#F5A8A2}
   ]]>
  </style>
 </defs>
 <g id="Capa_x0020_1">
  <metadata id="CorelCorpID_0Corel-Layer"/>
  <rect class="fil0 str0" x="4765" y="623" width="19997" height="19751"/>
  <polygon class="fil1 str1" points="19767,3909 16240,3909 14767,623 18179,623 "/>
  <polygon class="fil1 str1" points="9766,3909 6239,3909 4765,623 8178,623 "/>
  <polygon class="fil1 str1" points="9801,3909 13328,3909 14802,623 11389,623 "/>
  <polygon class="fil1 str1" points="19762,3909 23289,3909 24763,623 21350,623 "/>
  <polygon class="fil1 str1" points="19767,3910 16240,3910 14767,7196 18179,7196 "/>
  <polygon class="fil1 str1" points="9766,3910 6239,3910 4765,7196 8178,7196 "/>
  <polygon class="fil1 str1" points="9801,3910 13328,3910 14802,7196 11389,7196 "/>
  <polygon class="fil1 str1" points="19762,3910 23289,3910 24763,7196 21350,7196 "/>
  <polygon class="fil1 str1" points="19767,10496 16240,10496 14767,13782 18179,13782 "/>
  <polygon class="fil1 str1" points="9766,10496 6239,10496 4765,13782 8178,13782 "/>
  <polygon class="fil1 str1" points="9801,10496 13328,10496 14802,13782 11389,13782 "/>
  <polygon class="fil1 str1" points="19762,10496 23289,10496 24763,13782 21350,13782 "/>
  <polygon class="fil1 str1" points="19767,10495 16240,10495 14767,7209 18179,7209 "/>
  <polygon class="fil1 str1" points="9766,10495 6239,10495 4765,7209 8178,7209 "/>
  <polygon class="fil1 str1" points="9801,10495 13328,10495 14802,7209 11389,7209 "/>
  <polygon class="fil1 str1" points="19762,10495 23289,10495 24763,7209 21350,7209 "/>
  <polygon class="fil2 str2" points="19767,3909 16240,3909 14767,623 18179,623 "/>
  <polygon class="fil2 str2" points="9766,3909 6239,3909 4765,623 8178,623 "/>
  <polygon class="fil2 str2" points="9801,3909 13328,3909 14802,623 11389,623 "/>
  <polygon class="fil2 str2" points="19762,3909 23289,3909 24763,623 21350,623 "/>
  <polygon class="fil3 str3" points="19767,3910 16240,3910 14767,7196 18179,7196 "/>
  <polygon class="fil3 str3" points="9766,3910 6239,3910 4765,7196 8178,7196 "/>
  <polygon class="fil3 str3" points="9801,3910 13328,3910 14802,7196 11389,7196 "/>
  <polygon class="fil3 str3" points="19762,3910 23289,3910 24763,7196 21350,7196 "/>
  <polygon class="fil3 str3" points="19767,10496 16240,10496 14767,13782 18179,13782 "/>
  <polygon class="fil3 str3" points="9766,10496 6239,10496 4765,13782 8178,13782 "/>
  <polygon class="fil3 str3" points="9801,10496 13328,10496 14802,13782 11389,13782 "/>
  <polygon class="fil3 str3" points="19762,10496 23289,10496 24763,13782 21350,13782 "/>
  <polygon class="fil2 str2" points="19767,10495 16240,10495 14767,7209 18179,7209 "/>
  <polygon class="fil2 str2" points="9766,10495 6239,10495 4765,7209 8178,7209 "/>
  <polygon class="fil2 str2" points="9801,10495 13328,10495 14802,7209 11389,7209 "/>
  <polygon class="fil2 str2" points="19762,10495 23289,10495 24763,7209 21350,7209 "/>
  <polygon class="fil1 str1" points="19770,17087 16243,17087 14769,20373 18182,20373 "/>
  <polygon class="fil1 str1" points="9769,17087 6241,17087 4768,20373 8181,20373 "/>
  <polygon class="fil1 str1" points="9804,17087 13331,17087 14804,20373 11392,20373 "/>
  <polygon class="fil1 str1" points="19765,17087 23292,17087 24765,20373 21353,20373 "/>
  <polygon class="fil1 str1" points="19770,17086 16243,17086 14769,13800 18182,13800 "/>
  <polygon class="fil1 str1" points="9769,17086 6241,17086 4768,13800 8181,13800 "/>
  <polygon class="fil1 str1" points="9804,17086 13331,17086 14804,13800 11392,13800 "/>
  <polygon class="fil1 str1" points="19765,17086 23292,17086 24765,13800 21353,13800 "/>
  <polygon class="fil3 str3" points="19770,17087 16243,17087 14769,20373 18182,20373 "/>
  <polygon class="fil3 str3" points="9769,17087 6241,17087 4768,20373 8181,20373 "/>
  <polygon class="fil3 str3" points="9804,17087 13331,17087 14804,20373 11392,20373 "/>
  <polygon class="fil3 str3" points="19765,17087 23292,17087 24765,20373 21353,20373 "/>
  <polygon class="fil2 str2" points="19770,17086 16243,17086 14769,13800 18182,13800 "/>
  <polygon class="fil2 str2" points="9769,17086 6241,17086 4768,13800 8181,13800 "/>
  <polygon class="fil2 str2" points="9804,17086 13331,17086 14804,13800 11392,13800 "/>
  <polygon class="fil2 str2" points="19765,17086 23292,17086 24765,13800 21353,13800 "/>
 </g>
</svg>
