<?xml version="1.0" encoding="UTF-8"?>
<!DOCTYPE svg PUBLIC "-//W3C//DTD SVG 1.1//EN" "http://www.w3.org/Graphics/SVG/1.1/DTD/svg11.dtd">
<!-- Creator: CorelDRAW X8 -->
<svg xmlns="http://www.w3.org/2000/svg" xml:space="preserve" width="297mm" height="210mm" version="1.1" style="shape-rendering:geometricPrecision; text-rendering:geometricPrecision; image-rendering:optimizeQuality; fill-rule:evenodd; clip-rule:evenodd"
viewBox="0 0 29700 21000"
 xmlns:xlink="http://www.w3.org/1999/xlink">
 <defs>
  <style type="text/css">
   <![CDATA[
    .str0 {stroke:#D6E0EC;stroke-width:20}
    .str1 {stroke:#AA5651;stroke-width:7.62}
    .fil1 {fill:#AA5651}
    .fil2 {fill:#CB9D9F}
    .fil0 {fill:#D6E0EC}
   ]]>
  </style>
 </defs>
 <g id="Capa_x0020_1">
  <metadata id="CorelCorpID_0Corel-Layer"/>
  <rect class="fil0 str0" x="4351" y="318" width="20000" height="20395"/>
  <path class="fil1" d="M6967 9963c-100,-85 -245,-149 -379,-66 -21,14 -52,43 -73,60 -914,746 -1057,4275 62,5277 668,659 2293,1976 2555,2315 175,226 196,166 379,169 342,4 94,-711 24,-900 -41,-112 -62,-460 -47,-582 18,-140 45,-277 -4,-417 -28,-83 -110,-110 -167,-167 -659,-659 -746,-1149 -1639,-1807 -216,-159 152,-458 297,-611 47,-41 98,-74 128,-132 39,-76 90,-93 31,-172 -439,-587 -778,-2633 -1167,-2967z"/>
  <path class="fil1" d="M6353 4936c327,512 1082,1258 1748,1236 119,-4 97,-25 166,-60 278,-145 1259,-1343 1398,-1541 113,-161 233,-300 170,-515 -7,-27 -15,-40 -25,-60 -604,-1124 -1148,-2066 -2856,-1938 -159,12 -436,13 -557,136 -736,749 -561,1935 -44,2742z"/>
  <path class="fil1" d="M19681 8460c-4,137 356,1047 442,1332 205,686 -80,964 613,988 591,135 1110,816 1473,1118 79,44 507,398 659,135 49,-84 30,-247 23,-343 -9,-114 -10,-254 -19,-351 -142,-1481 -1328,-3766 -3191,-2879z"/>
  <path class="fil2" d="M13979 7653c70,479 43,878 716,887 654,9 2214,-1128 2217,-1472 3,-437 -898,-1614 -1338,-1599 -148,6 -64,31 -149,75 -110,57 -53,34 -117,112 -87,102 -319,309 -370,378 -240,321 -1010,1262 -959,1619z"/>
  <path class="fil2" d="M9402 11178c-89,52 -205,127 -132,267 40,76 52,48 85,143 348,597 623,984 1146,1410 206,168 253,55 351,4 429,-226 1019,-1038 1291,-1362 53,-62 108,-87 126,-166 49,-223 -11,-505 -31,-742 -98,-1185 -2521,264 -2836,446z"/>
  <path class="fil2" d="M9125 10744c61,46 64,26 143,5 735,-302 1263,-564 1686,-1031 141,-155 54,-579 52,-769 -7,-673 -826,-629 -1425,-766 -173,-40 -411,2 -497,181 -186,387 -499,1972 41,2380z"/>
  <path class="fil2" d="M13215 11102c77,137 377,430 579,422 949,-35 1527,-277 1597,-1261 162,-2277 -2943,-531 -2176,839z"/>
  <path class="fil2" d="M11584 8251c-31,118 -38,13 -48,202 -30,567 -64,1186 712,1191 838,5 1295,-391 1282,-1286 -7,-493 -121,-851 -658,-932 -461,-70 -1188,452 -1288,825z"/>
  <path class="fil2" d="M9983 7586c155,97 324,169 483,253 488,179 1218,-693 1438,-1105l36 -125c260,-373 -133,-952 -270,-1085 -51,-49 -156,-9 -215,13 -425,159 -2254,1797 -1472,2049z"/>
  <path class="fil2" d="M12376 5168c-136,280 309,2132 1030,1884 30,-11 54,-41 82,-70 427,-429 1510,-2054 566,-2148 -499,-50 -1377,-290 -1678,334z"/>
  <path class="fil2" d="M16244 8375c-234,146 -498,341 -482,635 31,546 98,788 529,1091l151 80c382,116 983,-325 1297,-489 89,-44 130,-94 183,-193 42,-77 31,-129 24,-214 -13,-159 -69,-277 -120,-391 -415,-923 -728,-1042 -1582,-519z"/>
  <path class="fil2" d="M15919 13005c452,-127 923,-892 904,-1405 -1,-29 -77,-254 -131,-321 -165,-207 -672,-294 -923,-265 -233,27 -413,429 -530,553 -28,30 -229,364 -261,434l-32 55c-146,296 -344,488 90,760 319,201 437,314 883,189z"/>
  <path class="fil2" d="M13205 12110c-930,3 -985,522 -1563,1080 -423,409 149,611 539,769l184 79c130,85 105,14 174,95 114,-167 181,-185 410,-541 84,-177 522,-1008 519,-1094 -6,-153 -70,-389 -263,-388z"/>
  <path class="fil2" d="M14010 12956c-263,464 -346,537 -497,1170 -1,3 -2,6 -2,9 -48,261 8,517 301,606l387 77c654,45 574,44 649,-282 8,-36 -570,-2052 -838,-1580z"/>
  <path class="fil1" d="M20226 14937c-54,-63 -119,-260 -234,-161 -7,6 -41,53 -54,67 -285,312 -486,495 -765,886 -56,79 -96,117 -99,185 267,309 910,416 1303,429 49,6 338,-48 362,-79 28,-116 -195,-952 -513,-1327z"/>
  <path class="fil2" d="M18309 14176c-108,-380 -334,-593 -715,-777 -98,-48 -850,-440 -821,-51 6,75 -2,102 12,192 46,279 309,652 404,856 104,224 293,254 542,223 203,-25 678,-92 578,-443z"/>
  <path class="fil2" d="M16320 14025l-51 -69c-154,-194 -399,-470 -701,-394 -591,230 -576,1310 356,1295 123,-3 372,-55 482,-97 406,-155 204,-493 -86,-735z"/>
  <path class="fil2" d="M8841 13246c121,66 780,-319 500,-765 -196,-312 -474,-1137 -915,-1070 -643,98 191,1579 415,1835z"/>
  <path class="fil2" d="M17345 12286c20,37 12,49 29,91 121,300 542,533 831,695 205,114 357,-29 435,-203 101,-223 90,-717 8,-954 -153,-203 -1543,-65 -1303,371z"/>
  <path class="fil2" d="M18408 10551c-163,-185 -450,-454 -749,-330 -64,26 -61,30 -111,72 -130,117 -371,230 -419,345 -36,88 -3,192 20,277 77,278 85,536 439,517 274,-14 394,-107 584,-223 173,-107 393,-479 236,-658z"/>
  <path class="fil2" d="M10364 5067c387,591 739,135 933,28 121,-34 680,-502 715,-541 21,-23 31,-27 34,-67 37,-476 -668,-247 -896,-183 -244,69 -961,544 -786,763z"/>
  <path class="fil2" d="M16660 5885c2,2 5,4 7,5l29 20c174,116 525,-183 514,-360 -28,-489 -811,-1056 -1283,-949 -53,12 -28,3 -59,36l-81 111c-100,135 -109,146 20,305 79,83 794,797 853,832z"/>
  <path class="fil2" d="M7959 10847c168,225 492,167 503,-118 13,-325 29,-1103 -117,-1290 -201,-258 -380,-121 -457,-103 -53,13 -162,159 -178,208 -136,442 -25,934 249,1303z"/>
  <path class="fil2" d="M17530 6177c-37,19 -161,118 -180,147l-109 228c-33,150 48,282 107,381 28,46 7,74 43,126l264 316c35,29 42,5 136,104 52,55 49,31 105,65 90,54 68,119 228,99 94,-12 203,-19 236,-92 58,-125 53,-122 33,-277 -14,-101 -34,-169 -69,-256 -19,-48 -12,-89 -31,-139 -12,-32 -27,-89 -51,-116l-70 -87c-65,-80 -97,-53 -150,-187l-142 -183c-82,-83 -222,-192 -350,-129z"/>
  <path class="fil2" d="M19505 14614c79,-242 -143,-714 -437,-514 -54,37 -120,129 -168,191 -155,202 -320,406 -486,595 -116,132 97,296 170,367 219,215 861,-448 921,-639z"/>
  <path class="fil2" d="M9346 7110c400,-202 707,-644 851,-1001 16,-40 23,-57 14,-105 -25,-137 -239,-327 -371,-312 -513,58 -1148,1161 -494,1418z"/>
  <path class="fil2" d="M19769 10988c-23,-46 -20,-69 -102,-129 -172,-126 -389,-176 -609,-136 -74,188 -69,539 28,729l73 167c86,237 88,185 160,323 79,152 524,337 554,-19 3,-37 11,3 22,-78 62,-269 -1,-619 -126,-857z"/>
  <path class="fil2" d="M12197 3989c-339,516 1098,197 1211,171 420,-122 320,-423 274,-429 13,-61 -858,-698 -1485,258z"/>
  <path class="fil2" d="M19451 13700c72,72 122,56 151,59 213,30 564,-653 260,-988 -145,-161 -987,193 -411,929z"/>
  <path class="fil2" d="M8177 8750c230,573 790,-789 833,-896 140,-415 -164,-505 -195,-471 -44,-45 -1064,306 -638,1367z"/>
  <path class="fil2" d="M15510 4341c166,226 16,519 -260,446 -315,-83 -1063,-296 -1199,-491 -187,-268 -4,-399 37,-467 27,-47 199,-109 250,-109 462,0 900,250 1172,621z"/>
  <path class="fil2" d="M9793 13162c-2,-1 -5,-2 -7,-4l-31 -16c-185,-98 -504,234 -476,410 77,483 913,969 1372,814 51,-17 27,-5 55,-41l70 -119c85,-144 94,-155 -51,-301 -87,-75 -870,-714 -932,-743z"/>
  <path class="fil2" d="M11397 14248c-2,-1 -5,-2 -8,-3l-33 -12c-198,-67 -460,311 -405,480 153,465 1055,813 1484,588 48,-25 26,-10 47,-50l51 -128c61,-156 68,-168 -98,-290 -97,-59 -972,-566 -1038,-585z"/>
  <path class="fil2" d="M18740 9683c2,2 3,5 5,7l17 29c104,172 487,24 536,-144 135,-465 -319,-1281 -740,-1356 -46,-8 -23,-7 -59,12l-102 73c-125,89 -136,95 -83,291 38,106 390,1034 426,1088z"/>
  <path class="fil2" d="M14495 15919c269,-82 325,-406 60,-514 -301,-122 -1028,-401 -1253,-327 -311,101 -243,316 -252,395 -6,55 94,207 135,238 370,277 870,341 1310,208z"/>
  <path class="fil2" d="M15619 15361c-2,1 -6,1 -8,2l-35 7c-204,45 -233,505 -98,620 371,319 1323,151 1574,-263 28,-46 16,-22 15,-67l-23 -136c-29,-166 -29,-180 -234,-198 -114,0 -1125,17 -1191,35z"/>
  <path class="fil2" d="M17370 15519c-29,81 2,114 10,137 55,174 705,193 851,-162 69,-170 -508,-684 -861,25z"/>
  <path class="fil1 str1" d="M13127 2779c-94,-113 -168,-282 -94,-449 11,-27 39,-67 55,-93 685,-1158 4238,-1617 5333,-356 715,749 2165,2593 2527,2880 241,191 182,222 198,441 30,410 -710,171 -906,102 -117,-41 -470,-37 -592,-9 -140,33 -276,77 -421,30 -86,-28 -119,-124 -181,-188 -714,-737 -1216,-802 -1947,-1820 -176,-246 -451,219 -594,405 -38,61 -67,125 -124,165 -74,53 -88,116 -172,51 -625,-479 -2716,-719 -3082,-1159z"/>
  <path class="fil1 str1" d="M12249 16162c144,2 1081,421 1375,523 710,246 1014,-40 1008,688 114,625 803,1199 1104,1593 42,85 393,549 110,697 -90,47 -260,20 -360,8 -119,-14 -265,-22 -367,-36 -1545,-216 -3884,-1562 -2870,-3473z"/>
 </g>
</svg>
