<?xml version="1.0" encoding="UTF-8"?>
<!DOCTYPE svg PUBLIC "-//W3C//DTD SVG 1.1//EN" "http://www.w3.org/Graphics/SVG/1.1/DTD/svg11.dtd">
<!-- Creator: CorelDRAW X8 -->
<svg xmlns="http://www.w3.org/2000/svg" xml:space="preserve" width="297mm" height="210mm" version="1.1" style="shape-rendering:geometricPrecision; text-rendering:geometricPrecision; image-rendering:optimizeQuality; fill-rule:evenodd; clip-rule:evenodd"
viewBox="0 0 29700 21000"
 xmlns:xlink="http://www.w3.org/1999/xlink">
 <defs>
  <style type="text/css">
   <![CDATA[
    .str0 {stroke:#B18E30;stroke-width:20}
    .str1 {stroke:#E6E5EA;stroke-width:7.62}
    .fil0 {fill:#B18E30}
    .fil1 {fill:#E6E5EA}
   ]]>
  </style>
 </defs>
 <g id="Capa_x0020_1">
  <metadata id="CorelCorpID_0Corel-Layer"/>
  <rect class="fil0 str0" x="8043" y="3417" width="15000" height="15000"/>
  <path class="fil1 str1" d="M13104 9434l1308 1164 -148 52 -1774 643 17 77 2077 84 -906 1748 36 40 1450 -1498 12 74 487 2252 45 10 241 -2306 41 16 2127 1023 -1717 -1740 2195 -592 0 -49 -2185 -264 -60 -6 841 -1998 -1408 1532c-105,-282 -652,-1833 -780,-1942 -45,209 -158,1639 -198,2242 -525,-161 -1271,-489 -1701,-562z"/>
 </g>
</svg>
