<?xml version="1.0" encoding="UTF-8"?>
<!DOCTYPE svg PUBLIC "-//W3C//DTD SVG 1.1//EN" "http://www.w3.org/Graphics/SVG/1.1/DTD/svg11.dtd">
<!-- Creator: CorelDRAW X8 -->
<svg xmlns="http://www.w3.org/2000/svg" xml:space="preserve" width="297mm" height="210mm" version="1.1" style="shape-rendering:geometricPrecision; text-rendering:geometricPrecision; image-rendering:optimizeQuality; fill-rule:evenodd; clip-rule:evenodd"
viewBox="0 0 29700 21000"
 xmlns:xlink="http://www.w3.org/1999/xlink">
 <defs>
  <style type="text/css">
   <![CDATA[
    .str1 {stroke:#C8C5E2;stroke-width:7.62}
    .str0 {stroke:#A8518A;stroke-width:7.62}
    .str2 {stroke:#5CA47A;stroke-width:7.62}
    .fil2 {fill:#C8C5E2}
    .fil1 {fill:#A8518A}
    .fil3 {fill:#5CA47A}
    .fil0 {fill:#D5CDCA}
   ]]>
  </style>
 </defs>
 <g id="Capa_x0020_1">
  <metadata id="CorelCorpID_0Corel-Layer"/>
  <rect class="fil0" x="5180" y="711" width="20000" height="19662"/>
  <path class="fil1 str0" d="M10423 8414c80,-349 -370,-766 13,-805 283,-85 972,-30 1011,-52 83,-289 -45,-1430 223,-1537 480,-81 1107,389 1466,534 232,-343 1485,-2216 1496,-2222 245,-310 413,-197 584,78 273,316 1435,2174 1666,2117 3,-1 470,-280 485,-292 488,-240 808,-364 995,-121 124,233 16,1197 147,1374 46,9 442,-39 573,-38 141,2 465,-47 561,-7 124,51 47,309 14,444 -56,153 -161,288 -79,447 648,-123 1024,-287 1419,-243 172,-7 519,19 508,318 -101,474 -609,776 -1050,1683 -93,192 -649,1071 -634,1164 645,152 552,163 1215,300 386,99 371,261 133,499 -317,317 -1091,684 -1189,821 298,564 933,969 220,1133 -18,7 -725,107 -797,114 -415,41 -452,14 -871,133 -336,96 -1040,118 -1390,2 -107,-35 -296,-143 -389,-84 -50,32 -379,477 -466,569 -129,135 -938,1007 -995,1040 -262,149 -383,-90 -620,-282 -307,-332 -688,-563 -1054,-1005 -333,-402 -107,-306 -597,-141 -435,146 -1962,-140 -3152,-84 -200,6 -246,-26 -297,-94 5,-427 211,-609 340,-945 108,-280 -599,-500 -1086,-873 -359,-348 180,-529 722,-735 55,-5 625,-183 644,-206 -47,-425 -1040,-1838 -1506,-2246 -160,-233 -450,-338 -465,-592 374,-721 1879,-65 2202,-166z"/>
  <path class="fil2 str1" d="M14050 9464c109,-235 653,-1357 798,-1515 81,-88 184,-127 269,21 147,256 978,1636 1002,1846 154,496 454,1329 -103,1967 -252,287 -567,459 -928,493 -216,20 -327,-27 -534,-105 -158,-60 -462,-339 -555,-486 -507,-798 -238,-1450 51,-2221z"/>
  <path class="fil2 str1" d="M11303 8336c110,-215 2332,1040 2156,1421 -69,149 -172,583 -180,746 -25,482 60,856 287,1266 61,110 524,550 -213,332 -463,-137 -1001,-537 -1268,-927 -193,-281 -416,-1047 -463,-1387 -28,-198 -75,-608 -133,-780 -25,-75 -202,-640 -186,-671z"/>
  <path class="fil3 str2" d="M10678 13450c571,-1086 1630,-986 2578,-913 197,15 374,30 571,55 294,37 170,131 32,263 -280,270 -609,495 -940,823 -721,119 -1378,-122 -2114,-32 -128,16 -220,-1 -127,-196z"/>
  <path class="fil2 str1" d="M15056 6861c-58,-25 -160,-51 -226,29 -258,324 -467,817 -633,1213 -133,-138 -283,-488 -323,-583 -178,-423 266,-1054 532,-1364 115,-134 335,-444 444,-554 112,-113 100,-197 225,-23 250,286 896,1189 992,1576 57,229 -157,701 -333,860 -134,-167 -581,-1156 -678,-1154z"/>
  <path class="fil3 str2" d="M14704 12771c199,-63 608,-22 808,26 693,168 610,1015 461,1241 -454,430 -699,660 -890,715 -196,-65 -377,-368 -891,-797 -159,-197 -96,-520 -12,-743 76,-205 323,-379 524,-442z"/>
  <path class="fil2 str1" d="M13677 8163c237,313 175,373 56,710 -143,403 -314,153 -552,-28 -763,-582 -809,-323 -921,-1215 -28,-217 -74,-567 -35,-798 452,140 1163,949 1452,1331z"/>
  <path class="fil2 str1" d="M18500 11329c-192,41 64,-263 91,-407 29,-34 329,-1467 361,-1601 76,-315 956,-462 1259,-538 373,-94 90,132 -1,272 -190,240 -250,147 -453,633 -13,56 -465,862 -750,1236 -90,119 -371,376 -507,405z"/>
  <path class="fil2 str1" d="M16277 8137c-248,305 -187,367 -80,708 128,408 308,164 552,-9 783,-555 820,-294 964,-1182 35,-216 94,-563 62,-796 -456,124 -1196,908 -1498,1279z"/>
  <path class="fil2 str1" d="M18784 8353c-98,-219 -2282,959 -2126,1346 61,150 145,588 148,752 7,482 -88,853 -321,1255 -62,107 -524,531 194,339 451,-121 983,-502 1254,-883 195,-274 436,-1032 494,-1370 33,-197 93,-605 154,-775 27,-74 217,-633 203,-664z"/>
  <path class="fil2 str1" d="M11652 11523c193,33 -74,-260 -106,-403 -31,-33 -388,-1453 -425,-1585 -88,-312 -973,-425 -1279,-489 -377,-78 -84,136 12,272 199,233 256,137 477,615 15,55 499,843 798,1206 95,115 386,361 523,384z"/>
  <polygon class="fil2 str1" points="11341,11893 11749,12199 11006,12611 9867,12074 "/>
  <polygon class="fil2 str1" points="18750,11739 18332,12030 19059,12468 20217,11971 "/>
  <path class="fil3 str2" d="M19430 13379c-575,-1084 -1634,-980 -2581,-903 -198,16 -374,31 -571,57 -294,38 -170,131 -32,263 282,269 612,492 944,820 721,116 1377,-127 2114,-40 128,15 220,-2 126,-197z"/>
 </g>
</svg>
