<?xml version="1.0" encoding="UTF-8"?>
<!DOCTYPE svg PUBLIC "-//W3C//DTD SVG 1.1//EN" "http://www.w3.org/Graphics/SVG/1.1/DTD/svg11.dtd">
<!-- Creator: CorelDRAW X8 -->
<svg xmlns="http://www.w3.org/2000/svg" xml:space="preserve" width="297mm" height="210mm" version="1.1" style="shape-rendering:geometricPrecision; text-rendering:geometricPrecision; image-rendering:optimizeQuality; fill-rule:evenodd; clip-rule:evenodd"
viewBox="0 0 29700 21000"
 xmlns:xlink="http://www.w3.org/1999/xlink">
 <defs>
  <style type="text/css">
   <![CDATA[
    .str0 {stroke:#A8CF45;stroke-width:20}
    .str1 {stroke:#E6E5EA;stroke-width:7.62}
    .fil0 {fill:#A8CF45}
    .fil1 {fill:#E6E5EA}
   ]]>
  </style>
 </defs>
 <g id="Capa_x0020_1">
  <metadata id="CorelCorpID_0Corel-Layer"/>
  <polygon class="fil0 str0" points="7095,10422 8907,7283 10719,4144 14344,4144 17969,4144 19781,7283 21594,10422 19781,13561 17969,16701 14344,16701 10719,16701 8907,13561 "/>
  <path class="fil1 str1" d="M13188 12325l907 -1021 41 116 501 1384 61 -14 65 -1619 1364 706 31 -28 -1168 -1131 57 -9 1757 -380 8 -36 -1799 -188 12 -31 798 -1660 -1357 1340 -462 -1713 -38 0 -206 1705 -5 46 -1558 -655 1195 1098c-220,82 -1430,508 -1516,608 164,35 1279,123 1750,155 -125,410 -382,992 -438,1327z"/>
 </g>
</svg>
