<?xml version="1.0" encoding="UTF-8"?>
<!DOCTYPE svg PUBLIC "-//W3C//DTD SVG 1.1//EN" "http://www.w3.org/Graphics/SVG/1.1/DTD/svg11.dtd">
<!-- Creator: CorelDRAW X8 -->
<svg xmlns="http://www.w3.org/2000/svg" xml:space="preserve" width="297mm" height="210mm" version="1.1" style="shape-rendering:geometricPrecision; text-rendering:geometricPrecision; image-rendering:optimizeQuality; fill-rule:evenodd; clip-rule:evenodd"
viewBox="0 0 29700 21000"
 xmlns:xlink="http://www.w3.org/1999/xlink">
 <defs>
  <style type="text/css">
   <![CDATA[
    .fil1 {fill:#C43D37}
    .fil2 {fill:#D8736B}
    .fil0 {fill:#F4F0F1}
   ]]>
  </style>
 </defs>
 <g id="Capa_x0020_1">
  <metadata id="CorelCorpID_0Corel-Layer"/>
  <polygon class="fil0" points="5308,20528 25308,20528 25308,528 5308,528 "/>
  <path class="fil1" d="M14882 14395c115,-21 1192,-407 1331,-527 92,-79 174,-83 254,-160l342 -290c78,-55 46,-18 108,-91 67,-79 138,-123 213,-200l184 -233c123,-144 71,-60 179,-235 54,-87 123,-166 161,-256 139,-326 235,-624 224,-1011 -4,-131 26,-282 -4,-404 -34,-140 -40,-219 -79,-334 -42,-126 -59,-207 -73,-342 -14,-138 -157,-442 -244,-567 -126,-180 -182,-348 -315,-512 -74,-91 -112,-147 -196,-220 -769,-674 -1971,-1336 -3011,-1068 -353,91 -950,344 -1158,621 -208,279 -304,378 -476,710 -68,131 -204,581 -220,723 -38,340 -9,547 31,870 31,246 14,171 111,360 58,113 47,206 128,347 91,158 289,426 408,538 209,196 721,421 971,455 434,60 873,43 1227,-177 269,-167 385,-199 496,-452 251,-573 241,-955 -5,-1526 -91,-211 -229,-366 -455,-493 -251,-140 -707,-114 -964,61 -38,26 -63,71 -114,121 -162,156 -196,554 -85,737 92,151 115,188 305,183 67,-99 269,-676 467,-301 120,226 140,604 -53,775 -193,171 -546,157 -776,66 -357,-142 -690,-674 -707,-1054 -3,-68 -11,-180 -10,-215 7,-521 317,-996 823,-1146 394,-116 921,-140 1325,38 244,106 413,190 601,388 40,42 80,77 128,128 131,137 187,291 294,436 123,167 198,531 251,735 110,424 89,938 -117,1278 -393,648 -1541,1209 -2315,1138 -267,-25 -736,-145 -963,-258l-196 -100c-174,-78 -401,-250 -543,-366 -429,-351 -520,-488 -741,-1073 -886,-2341 1218,-4383 3639,-3950 675,179 1848,523 2435,1398 76,114 133,145 199,275 116,230 362,818 382,1057 45,537 103,728 38,1340 -20,188 -105,388 -159,565 -17,59 -20,143 -42,200l-244 460c-125,259 -193,369 -367,601l-333 378c-230,257 -448,318 -688,519 -42,36 -96,58 -147,87 -540,298 -886,385 -1496,400 -218,6 -610,58 -895,-5 -151,-17 -218,-32 -269,92 228,501 1499,753 2038,693 210,12 1132,-248 1339,-391 528,-366 482,-231 1009,-690 244,-213 638,-645 781,-939 61,-126 135,-237 205,-367l182 -385c134,-270 229,-503 306,-818 114,-475 222,-1033 124,-1540 -58,-302 -74,-648 -184,-952l-552 -1143 -625 -799c-175,-164 -430,-450 -600,-548 -75,-44 -121,-63 -187,-108 -1025,-704 -3061,-829 -4284,-483 -538,152 -1131,345 -1566,708 -286,239 -330,299 -558,589 -177,227 -266,456 -409,735l-223 604c-17,132 -33,127 -60,235 -78,310 -136,681 -125,1021 11,345 76,685 118,1025 34,278 177,407 312,836 57,181 183,347 295,532l106 191c51,99 196,239 259,312 254,296 423,453 738,683 683,498 1951,657 2766,485z"/>
  <path class="fil2" d="M24593 12474c-32,-48 -90,-119 -130,-167 -176,-210 -371,-432 -600,-585 -120,-80 -232,-177 -366,-232 -197,-81 -701,-225 -910,-261l-1084 -94c-159,10 -825,72 -953,225 -164,195 170,328 368,430 73,38 142,50 211,83 68,32 103,71 188,110 72,33 133,58 204,92 129,62 252,128 414,183 74,26 144,37 225,67 382,142 3185,1262 2433,149z"/>
  <path class="fil2" d="M10862 14659c-214,19 -374,57 -533,146 -103,58 -261,98 -439,236 -32,25 -53,47 -87,71 -143,103 -388,256 -495,355 -184,171 -330,336 -465,565 -147,250 -461,654 -180,962 137,150 396,95 559,20 237,-109 328,-111 471,-202 67,-43 139,-81 217,-121l415 -257c150,-131 190,-214 323,-350l392 -454c96,-93 98,-47 241,-277 125,-201 424,-444 180,-618 -151,-109 -386,-96 -599,-76z"/>
  <path class="fil2" d="M21298 4300c-61,15 -162,74 -235,101 -67,26 -189,69 -248,87 -300,91 -453,210 -672,340 -95,56 -113,62 -201,136l-322 350c-55,97 -93,99 -163,175 -69,75 -55,113 -146,188 -182,151 -132,157 -285,386 -59,88 -265,297 -283,388 -23,114 25,163 115,203 191,84 676,106 912,5 135,-58 314,-160 453,-218 119,-50 337,-158 420,-255 71,-83 122,-87 187,-147 30,-27 39,-48 75,-83 92,-87 298,-223 437,-412 239,-324 125,-202 258,-413 243,-387 110,-932 -302,-831z"/>
  <path class="fil2" d="M18331 2736c-221,57 -405,279 -570,445 -102,103 -29,62 -163,192 -141,136 -737,1076 -815,1240 -38,81 -57,159 -95,238 -61,124 -41,161 -84,270 -59,151 -144,398 -85,585 7,23 122,190 136,201 130,102 465,-63 506,-98l549 -480c334,-359 244,-297 445,-580 57,-79 112,-128 160,-196 249,-398 300,-437 393,-966 41,-239 172,-630 -94,-798 -97,-61 -163,-84 -283,-53z"/>
  <path class="fil2" d="M13461 15524c-159,72 -308,120 -437,220 -43,33 -35,43 -81,77 -44,32 -73,38 -111,67l-189 147c-112,99 -126,192 -303,348 -169,151 -361,453 -472,675l-154 361c-106,408 -106,447 -121,869 -2,51 -12,113 -6,160 12,103 23,71 78,114 59,46 111,85 258,86 155,2 270,-188 392,-263l365 -309c122,-144 166,-243 264,-390 68,-101 237,-309 276,-396 96,-215 86,-180 237,-410 169,-259 340,-689 326,-1009 -5,-101 -14,-212 -74,-274 -63,-66 -162,-111 -248,-73z"/>
  <path class="fil2" d="M6353 8355c-299,60 -325,376 -161,572 85,101 471,334 595,373 121,37 127,56 222,95 146,59 1210,188 1437,190 546,5 667,-10 1173,-115 156,-32 382,-71 383,-258 3,-559 -2715,-839 -3007,-860 -105,-7 -573,-11 -642,3z"/>
  <path class="fil2" d="M17459 15625c-236,22 -229,120 -275,326 -67,297 -17,278 3,529 79,981 194,809 323,1462 63,322 114,370 184,569 25,73 23,179 130,322 74,98 196,340 415,222 39,-20 16,-11 42,-36 25,-25 -24,5 41,-37 50,-33 111,-39 162,-212 64,-215 -72,-750 -106,-1071 -34,-311 -74,-466 -185,-719 -26,-58 -36,-174 -50,-246l-180 -570c-85,-164 -171,-320 -299,-452 -55,-56 -109,-96 -205,-87z"/>
  <path class="fil2" d="M8046 10887c-346,28 -1690,152 -1828,342 -51,70 -18,155 4,221 33,94 31,121 118,158 136,59 237,114 366,169 418,178 1500,247 1908,78 206,-86 591,-201 711,-379 268,-396 83,-445 -264,-536 -191,-50 -803,-71 -1015,-53z"/>
  <path class="fil2" d="M20121 13210c-123,45 -264,176 -177,345 48,92 548,630 677,725 182,134 72,80 154,146 38,32 118,65 171,103l170 108c318,170 452,211 838,285 140,27 424,22 542,-22 115,-43 228,-214 206,-336 -30,-162 -254,-384 -387,-468l-161 -114c-402,-283 -559,-312 -896,-509 -276,-162 -800,-385 -1137,-263z"/>
  <path class="fil2" d="M21877 8987c-366,49 -569,71 -936,166 -220,56 -580,306 -576,511 4,158 171,205 309,229 188,33 222,91 462,83l1253 -40c180,0 966,-172 1147,-236 238,-84 130,-254 100,-333 -69,-187 -995,-330 -1248,-368 -262,-40 -238,-47 -511,-12z"/>
  <path class="fil2" d="M15155 16029c-95,27 -222,150 -267,223 -109,171 -75,205 -137,373 -122,335 -44,1038 -65,1446 -17,321 395,1681 682,605 36,-135 102,-262 128,-393l128 -756c42,-122 113,-909 96,-1065 -8,-79 -76,-340 -135,-385 -84,-65 -307,-84 -430,-48z"/>
  <path class="fil2" d="M18716 14678c-30,59 -68,88 -58,189 16,166 216,599 293,784l325 508c28,50 60,111 93,162 138,215 519,515 762,627 104,49 345,115 467,39 225,-141 -67,-576 -114,-800 -76,-358 -97,-382 -243,-569 -85,-111 -301,-355 -394,-416 -169,-113 -176,-181 -304,-250l-574 -257c-83,-47 -148,-30 -253,-17z"/>
  <path class="fil2" d="M9125 13055c-352,42 -794,40 -1163,133 -72,18 -142,30 -218,37 -366,30 -459,45 -721,316 -84,87 -143,282 -93,353 88,127 171,125 357,160 130,24 270,72 412,101 307,60 820,-50 1124,-146l565 -212c114,-50 206,-106 320,-194 221,-171 187,-154 191,-326 3,-110 5,-134 -92,-168 -72,-24 -139,-41 -209,-49 -191,-22 -288,-27 -473,-5z"/>
  <path class="fil2" d="M22136 6854c-425,61 -346,75 -625,150 -80,22 -149,23 -234,45 -351,95 -760,328 -1023,583 -36,35 -76,94 -120,138 -57,58 -157,58 -45,259 35,63 215,125 292,131 324,24 1055,-215 1331,-260l619 -176c98,-15 277,-122 365,-175 103,-61 69,-52 152,-123 426,-362 -44,-669 -712,-572z"/>
  <path class="fil2" d="M12098 2366c-202,65 -196,160 -193,384 2,114 131,810 196,959 45,103 39,123 62,235 15,72 47,153 64,232 16,71 29,143 49,217 20,71 60,162 73,229 12,56 5,79 15,125 9,40 26,59 46,106 36,84 36,143 70,229l170 424c18,47 17,383 307,251 283,-129 207,-638 164,-925l-66 -513c-46,-245 -321,-1065 -398,-1359 -54,-208 -245,-694 -559,-594z"/>
  <path class="fil2" d="M15597 4079c15,-111 -8,-92 -21,-192 -11,-81 6,-152 -3,-235 -33,-290 -69,-909 -231,-1104 -104,-126 -376,-209 -437,-90 -129,253 -16,74 -125,492 -77,298 -225,1227 -214,1527 10,251 78,386 56,578 -57,503 752,586 975,-976z"/>
  <path class="fil2" d="M9881 4081c-73,24 -138,26 -180,84 -99,135 24,568 73,665 70,140 299,562 405,682 128,146 54,120 248,288 73,63 797,590 1045,602 202,73 211,-166 162,-305l-309 -776c-115,-259 -636,-814 -890,-1005 -87,-65 -429,-275 -554,-235z"/>
  <path class="fil2" d="M8327 6415c-705,216 -763,594 19,892 426,162 1142,408 1609,405 156,-1 308,3 418,-68 106,-68 141,-258 92,-369 -59,-129 -541,-297 -658,-355 -73,-36 -267,-119 -331,-162 -115,-79 -213,-105 -350,-164 -210,-91 -532,-261 -799,-179z"/>
 </g>
</svg>
