<?xml version="1.0" encoding="UTF-8"?>
<!DOCTYPE svg PUBLIC "-//W3C//DTD SVG 1.1//EN" "http://www.w3.org/Graphics/SVG/1.1/DTD/svg11.dtd">
<!-- Creator: CorelDRAW X8 -->
<svg xmlns="http://www.w3.org/2000/svg" xml:space="preserve" width="297mm" height="210mm" version="1.1" style="shape-rendering:geometricPrecision; text-rendering:geometricPrecision; image-rendering:optimizeQuality; fill-rule:evenodd; clip-rule:evenodd"
viewBox="0 0 29700 21000"
 xmlns:xlink="http://www.w3.org/1999/xlink">
 <defs>
  <style type="text/css">
   <![CDATA[
    .fil2 {fill:#A45E4D}
    .fil1 {fill:#5CA47A}
    .fil0 {fill:#58C5FE}
   ]]>
  </style>
 </defs>
 <g id="Capa_x0020_1">
  <metadata id="CorelCorpID_0Corel-Layer"/>
  <rect class="fil0" x="5500" y="500" width="20000" height="20000"/>
  <path class="fil1" d="M24042 1473c25,-135 -10,-267 -179,-174 -670,369 -2156,1150 -2592,1284 -117,199 555,1074 547,1422 -394,-13 -1150,-817 -1426,-642 -426,408 -1128,801 -1533,1193 -144,140 -171,152 -71,349 101,198 111,210 254,393 39,50 649,742 650,747 166,225 -121,228 -281,228 -721,-1 -953,-208 -1158,-229 -378,-40 -275,48 -413,241 -107,149 -693,1879 -1193,2734 -169,439 136,312 368,263 4835,-1592 6357,-4259 7027,-7809z"/>
  <path class="fil1" d="M7915 2865c254,402 594,1451 769,1673 282,20 1080,-329 1205,-203 102,212 -562,949 -536,1285 20,255 1159,1139 1241,1416 156,185 222,375 459,193 99,-85 906,-821 979,-540 19,75 -18,125 -39,169 -32,67 -50,463 -59,579 -19,217 -104,489 65,632 407,346 2667,1307 2794,984 255,-2304 -2972,-5975 -5393,-6811 -241,-158 -2082,-668 -2183,-497 -70,146 61,223 126,315 51,71 147,195 204,257l368 548z"/>
  <path class="fil1" d="M16702 10854c7,61 14,69 54,118 254,311 1053,1783 1244,2414 77,255 82,183 323,158 210,-22 478,-42 582,-57 229,-32 104,323 51,422 -175,326 -368,631 -71,932 889,681 1454,1676 1721,1689 255,-92 485,-643 873,-659 94,129 60,122 11,333 -77,326 -221,566 -197,947 -2,29 15,52 57,53 636,16 2780,1009 3309,1449 65,54 73,54 70,11 -204,-2551 -4054,-6822 -8027,-7810z"/>
  <path class="fil2" d="M14599 12218c132,-78 179,-107 261,-332 27,-95 59,-214 72,-303 18,-116 75,-390 59,-493 -10,-59 1,-126 -56,-146 -212,4 -729,221 -930,325 -2956,1525 -6047,4615 -8057,6920 -107,109 -269,376 -448,382l0 1929 1358 0c1998,-4772 6511,-7796 7741,-8282z"/>
  <path class="fil1" d="M11139 11287c9,-25 27,-53 36,-71 113,-299 409,-1302 658,-1356 24,47 64,279 89,361 57,182 173,508 276,683 81,138 109,152 143,259l25 61c26,-2 2482,-979 2230,-1251 -2342,-1457 -5750,-1425 -6538,-1232 -264,65 -517,112 -795,183 -203,61 -1336,499 -1466,628 -151,150 105,288 193,364 536,325 1095,940 1485,1157 333,184 47,-758 425,-879 135,-43 295,489 387,619 19,28 102,77 137,94 521,270 2246,565 2715,380z"/>
  <path class="fil1" d="M15093 12789c-62,79 -113,346 -60,440 95,167 756,46 1027,54 244,91 -106,373 -195,451 -105,91 -193,154 -309,259 -432,392 -506,256 -503,629 5,628 -253,1539 -201,2049 12,113 55,92 113,155 942,841 1163,1201 1847,2424 71,132 117,213 214,49 2,-4 12,-19 15,-23 1287,-2181 383,-6537 -1154,-8219 -221,-241 -627,1483 -794,1732z"/>
  <path class="fil1" d="M16021 8609c979,-1759 731,-5716 -577,-7342 -158,-5 -151,68 -203,195 -278,668 -565,929 -1102,1342 -712,488 -483,458 535,673 116,17 409,69 475,121 22,307 -855,834 -883,1033 -31,220 1282,2372 1328,3990 5,187 85,203 135,207 62,5 120,-22 169,-57 46,-33 55,-69 123,-162z"/>
  <path class="fil1" d="M23794 10572l68 -63c-258,-1167 -5529,-1811 -6708,-545 -13,14 -189,234 -209,298 80,43 174,43 263,70 944,223 2791,1040 3467,1510 246,25 276,-892 355,-1066 240,-391 792,1040 960,1180 113,94 233,-60 352,-180 481,-489 615,-678 780,-935 204,-49 381,-33 672,-269z"/>
 </g>
</svg>
