<?xml version="1.0" encoding="UTF-8"?>
<!DOCTYPE svg PUBLIC "-//W3C//DTD SVG 1.1//EN" "http://www.w3.org/Graphics/SVG/1.1/DTD/svg11.dtd">
<!-- Creator: CorelDRAW X8 -->
<svg xmlns="http://www.w3.org/2000/svg" xml:space="preserve" width="297mm" height="210mm" version="1.1" style="shape-rendering:geometricPrecision; text-rendering:geometricPrecision; image-rendering:optimizeQuality; fill-rule:evenodd; clip-rule:evenodd"
viewBox="0 0 29700 21000"
 xmlns:xlink="http://www.w3.org/1999/xlink">
 <defs>
  <style type="text/css">
   <![CDATA[
    .fil1 {fill:#00A859}
    .fil2 {fill:#255631}
    .fil0 {fill:#F0EEF1}
   ]]>
  </style>
 </defs>
 <g id="Capa_x0020_1">
  <metadata id="CorelCorpID_0Corel-Layer"/>
  <rect class="fil0" x="7771" y="2712" width="15000" height="15000"/>
  <path class="fil1" d="M15783 14905l-66 653c54,-9 820,34 850,46 672,-51 980,66 1718,-109 1081,-153 3792,-1979 2953,-2704 -1246,-222 -2208,-330 -3384,252 -422,209 -915,568 -1227,919 -151,171 -737,905 -844,943z"/>
  <path class="fil1" d="M14919 9861c-115,-67 -52,22 -426,-241 -181,-127 -420,-281 -587,-414 -567,-452 -2347,-898 -3095,-936 -457,-23 -1488,-148 -1014,652 402,681 1653,1346 2378,1636 474,189 1124,303 1632,239 255,-32 597,-68 834,-161 75,-30 242,-69 229,-84l49 -691z"/>
  <path class="fil1" d="M15724 9114c46,-190 1442,-526 1714,-594 646,-164 1320,-421 1855,-826 811,-613 2670,-2879 367,-2633 -1446,153 -2461,1005 -3272,2148 -694,977 -619,625 -620,578l-44 1327z"/>
  <path class="fil1" d="M15781 11553l-3 454c260,25 1247,-53 1540,-87 637,-76 1000,-160 1570,-459 591,-310 1882,-1518 1926,-2203 27,-417 -1060,-512 -1364,-493 -552,35 -1111,240 -1601,490 -848,435 -2068,2214 -2068,2214l0 84z"/>
  <path class="fil1" d="M15008 7473l8 -399c-130,31 -860,-714 -1038,-866 -334,-282 -845,-533 -1238,-732 -458,-231 -997,-405 -1517,-350 -369,39 -1247,102 -1242,624 5,504 1492,1718 2025,1835 518,213 950,275 1465,237 129,-10 1519,-131 1532,-124l5 -225z"/>
  <path class="fil1" d="M14737 14071l-37 -30c-47,16 -758,-872 -843,-969 -193,-222 -858,-685 -1128,-828 -469,-249 -771,-440 -1332,-494 -369,-35 -1357,-79 -1586,277 -379,591 1170,1937 1637,2182 1093,573 2051,564 3256,564l33 -702z"/>
  <path class="fil2" d="M15774 15370l11 -3378 7 -1127 -16 -1751 80 -3965c0,-151 9,-527 -153,-555 -47,-8 -549,-38 -584,14l-102 1608 -60 1996 -87 2340 4 577 -149 2785 -40 854c54,121 -169,1061 541,1078 337,9 547,-158 548,-476z"/>
 </g>
</svg>
