<?xml version="1.0" encoding="UTF-8"?>
<!DOCTYPE svg PUBLIC "-//W3C//DTD SVG 1.1//EN" "http://www.w3.org/Graphics/SVG/1.1/DTD/svg11.dtd">
<!-- Creator: CorelDRAW X8 -->
<svg xmlns="http://www.w3.org/2000/svg" xml:space="preserve" width="297mm" height="210mm" version="1.1" style="shape-rendering:geometricPrecision; text-rendering:geometricPrecision; image-rendering:optimizeQuality; fill-rule:evenodd; clip-rule:evenodd"
viewBox="0 0 29700 21000"
 xmlns:xlink="http://www.w3.org/1999/xlink">
 <defs>
  <style type="text/css">
   <![CDATA[
    .fil2 {fill:#099953}
    .fil1 {fill:#294131}
    .fil0 {fill:#F0EEF1}
   ]]>
  </style>
 </defs>
 <g id="Capa_x0020_1">
  <metadata id="CorelCorpID_0Corel-Layer"/>
  <rect class="fil0" x="8689" y="2689" width="15000" height="15000"/>
  <path class="fil1" d="M16454 13465l-15 10 -12 13 -44 448 29 -24c485,-193 2089,-1458 2562,-1840 629,-508 1857,-1342 1579,-2303 -83,-284 -458,-307 -674,-172 -70,43 -276,355 -407,470 -204,180 -574,999 -753,1271 -287,437 -442,808 -881,1146 -313,240 -1029,846 -1384,981z"/>
  <path class="fil1" d="M16117 14060l123 44 -1 -73 28 -18 4 -5 19 -182 -86 -39c-337,-18 -642,-219 -939,-368l-116 -63c-1134,-834 -1862,-2065 -2757,-3169l-55 -44 -50 -28 -24 -14 -13 -13c-132,-49 -547,-301 -675,57 -92,258 57,526 188,738 94,153 834,908 985,1014 337,236 832,600 1139,865 455,392 1650,1065 2230,1298z"/>
  <path class="fil1" d="M17974 10298c-169,225 -1121,1290 -1510,1535l29 289c350,-446 1760,-1536 2278,-1943 247,-196 921,-816 1023,-1092 91,-246 63,-622 -173,-784 -721,-497 -1441,1722 -1647,1995z"/>
  <path class="fil1" d="M16267 13037l34 -349 -50 -84 -109 -34c-570,-291 -1336,-993 -1675,-1538 -246,-393 -758,-1176 -1107,-1572 -268,-370 -841,-327 -847,32 -14,839 3157,3066 3754,3545z"/>
  <path class="fil1" d="M13261 8958l2853 2128 30 9 141 46 -71 -309c-1133,123 -2116,-3740 -3029,-2552 -209,271 -61,564 76,678z"/>
  <path class="fil1" d="M16475 10944l19 -34c40,-283 877,-937 1112,-1199 186,-207 428,-368 588,-599 161,-233 732,-1162 372,-1496 -565,-525 -816,558 -957,923 -175,453 -465,1780 -1083,1818l-13 279 15 -8 -53 316z"/>
  <path class="fil1" d="M16253 10049l-26 -83 18 8 -21 -200c-598,-477 -914,-2297 -1448,-2559 -195,-96 -374,-140 -478,93 -385,871 1597,2363 1955,2741z"/>
  <path class="fil2" d="M16543 14856c7,84 29,373 15,490 -106,31 -130,34 -225,26 -303,-23 -90,-4934 -148,-5605 14,-1149 -222,-2298 -197,-3460 28,-934 801,-1278 953,-584 202,918 -3,1250 -107,2099l-213 1887c-178,1580 -101,4111 -78,5147z"/>
 </g>
</svg>
