<?xml version="1.0" encoding="UTF-8"?>
<!DOCTYPE svg PUBLIC "-//W3C//DTD SVG 1.1//EN" "http://www.w3.org/Graphics/SVG/1.1/DTD/svg11.dtd">
<!-- Creator: CorelDRAW X8 -->
<svg xmlns="http://www.w3.org/2000/svg" xml:space="preserve" width="297mm" height="210mm" version="1.1" style="shape-rendering:geometricPrecision; text-rendering:geometricPrecision; image-rendering:optimizeQuality; fill-rule:evenodd; clip-rule:evenodd"
viewBox="0 0 29700 21000"
 xmlns:xlink="http://www.w3.org/1999/xlink">
 <defs>
  <style type="text/css">
   <![CDATA[
    .fil1 {fill:#89554E}
    .fil2 {fill:#E89768}
    .fil0 {fill:#F5DBCC}
   ]]>
  </style>
 </defs>
 <g id="Capa_x0020_1">
  <metadata id="CorelCorpID_0Corel-Layer"/>
  <rect class="fil0" x="4816" y="262" width="20000" height="20000"/>
  <path class="fil1" d="M14743 8979l-22 87c38,16 60,18 90,32 88,43 20,14 82,59 55,40 25,8 80,57 48,42 121,106 146,157 27,64 73,158 105,227l467 25c460,-11 1287,-344 1550,-675 -68,-203 -434,-69 -166,-304 242,-213 498,-975 241,-1172 -123,-95 -587,-166 -766,-145 -550,65 -643,432 -628,111 1,-17 4,-39 1,-56 -23,-125 -188,-111 -264,-51 -632,650 -622,798 -916,1648z"/>
  <path class="fil1" d="M14706 10563c-6,77 24,205 36,297 22,179 202,576 313,709 116,140 319,482 526,525 67,-2 109,-30 115,-102 -36,-223 -73,-165 -43,-242l31 -5c144,7 227,166 574,286 212,73 601,111 765,-10 241,-176 40,-761 -107,-999 -54,-88 -166,-180 -146,-298 44,-2 306,103 393,-111 -35,-81 -58,-82 -268,-275 -481,-390 -1002,-728 -1653,-626 -193,54 75,401 -464,484 -48,155 -87,184 -72,367z"/>
  <path class="fil1" d="M13914 9620l284 -403c101,-177 175,-60 267,-145 93,-114 38,-288 23,-426 -30,-210 -79,-294 -146,-463 -50,-127 -282,-488 -375,-573 -84,-77 -82,-115 -149,-175 -65,-57 -115,-101 -178,-151 -73,-59 -127,-64 -225,-32 -11,62 -31,149 -33,209 -1,88 133,318 -338,96 -202,-95 -547,-129 -763,-55 -110,37 -234,82 -266,183 -58,181 28,611 92,742 97,199 70,239 231,428 185,219 -38,146 -123,219 -166,143 149,286 254,314 129,34 253,74 379,104 157,38 933,126 1066,128z"/>
  <path class="fil1" d="M14509 10335l-29 -41c-2,-4 -5,-9 -8,-13 -52,-69 -61,-60 -142,-87 -220,-74 -219,-254 -355,-504 -593,-23 -1226,153 -1661,584 -135,133 -183,250 -123,307 57,15 175,61 209,87 -72,217 -180,341 -230,608 -33,175 -68,603 139,656 297,75 790,-8 1062,-137 75,-36 209,-120 293,-108 11,161 -49,214 31,311 129,36 212,-124 265,-189 147,-181 127,-99 331,-446 41,-70 142,-346 168,-443 49,-187 13,-403 50,-585z"/>
  <circle class="fil2" transform="matrix(2.25675 0.151652 -0.151652 2.25675 14596.4 9679.41)" r="294"/>
 </g>
</svg>
