<?xml version="1.0" encoding="UTF-8"?>
<!DOCTYPE svg PUBLIC "-//W3C//DTD SVG 1.1//EN" "http://www.w3.org/Graphics/SVG/1.1/DTD/svg11.dtd">
<!-- Creator: CorelDRAW X8 -->
<svg xmlns="http://www.w3.org/2000/svg" xml:space="preserve" width="297mm" height="210mm" version="1.1" style="shape-rendering:geometricPrecision; text-rendering:geometricPrecision; image-rendering:optimizeQuality; fill-rule:evenodd; clip-rule:evenodd"
viewBox="0 0 29700 21000"
 xmlns:xlink="http://www.w3.org/1999/xlink">
 <defs>
  <style type="text/css">
   <![CDATA[
    .fil2 {fill:#889FAC}
    .fil3 {fill:#38A9F5}
    .fil1 {fill:#9BD4DB}
    .fil0 {fill:#D6E0EC}
   ]]>
  </style>
 </defs>
 <g id="Capa_x0020_1">
  <metadata id="CorelCorpID_0Corel-Layer"/>
  <rect class="fil0" x="4803" y="695" width="20000" height="20000"/>
  <path class="fil1" d="M12806 2476c278,427 725,761 1023,1225 145,225 -16,-1003 -10,-1243 0,-190 4,-779 -37,-918 -11,0 -953,814 -979,834 -873,-506 -2757,-2384 -4874,139 1587,1923 4420,159 4877,-37z"/>
  <path class="fil2" d="M21140 1432c98,641 32,1334 47,2002 -429,-318 -927,-904 -1187,-967 -387,431 -3154,2111 -4764,-93 1981,-2566 4228,-761 4761,-9 26,-20 1078,-995 1143,-933z"/>
  <path class="fil1" d="M23769 9997c-643,88 -1265,212 -1950,153 328,-440 803,-1043 855,-1250 -340,-483 -1932,-3183 295,-4762 2537,2017 466,3957 -58,4760 -51,291 920,1035 858,1099z"/>
  <path class="fil2" d="M23848 16504c-639,138 -1077,370 -1880,153 329,-440 657,-925 709,-1132 -340,-483 -1990,-3078 96,-4763 2537,2017 712,3957 188,4761 -51,290 950,917 887,981z"/>
  <path class="fil1" d="M15745 18149c-97,641 -31,1335 -47,2002 430,-318 927,-904 1188,-967 387,431 3154,2111 4764,-93 -1981,-2566 -4228,-761 -4761,-9 -26,-20 -1079,-995 -1144,-933z"/>
  <path class="fil2" d="M9242 18998c-294,480 -766,855 -1081,1376 -153,253 17,-1127 12,-1396 0,-213 -5,-875 38,-1030 11,0 1007,913 1035,935 922,-567 2911,-2677 5147,157 -1676,2160 -4668,179 -5151,-42z"/>
  <path class="fil1" d="M7339 10590c-636,-127 -1378,-18 -2065,-1 301,459 1005,964 1044,1174 -368,462 -2118,3062 11,4771 2653,-1862 1210,-4251 226,-4755 -33,-293 842,-1121 784,-1189z"/>
  <path class="fil2" d="M7388 4172c-639,-138 -1253,-252 -2056,-36 328,441 833,809 884,1016 -340,483 -2131,2843 96,4762 2537,-2017 713,-3957 188,-4761 -51,-290 950,-916 888,-981z"/>
  <rect class="fil3" x="8501" y="4393" width="12572" height="12572" rx="148" ry="148"/>
 </g>
</svg>
