<?xml version="1.0" encoding="UTF-8"?>
<!DOCTYPE svg PUBLIC "-//W3C//DTD SVG 1.1//EN" "http://www.w3.org/Graphics/SVG/1.1/DTD/svg11.dtd">
<!-- Creator: CorelDRAW X8 -->
<svg xmlns="http://www.w3.org/2000/svg" xml:space="preserve" width="297mm" height="210mm" version="1.1" style="shape-rendering:geometricPrecision; text-rendering:geometricPrecision; image-rendering:optimizeQuality; fill-rule:evenodd; clip-rule:evenodd"
viewBox="0 0 29700 21000"
 xmlns:xlink="http://www.w3.org/1999/xlink">
 <defs>
  <style type="text/css">
   <![CDATA[
    .str0 {stroke:#CDA05F;stroke-width:20}
    .str2 {stroke:#A34440;stroke-width:7.62}
    .str1 {stroke:#F8F5FA;stroke-width:7.62}
    .fil2 {fill:#A34440}
    .fil0 {fill:#CDA05F}
    .fil1 {fill:#F8F5FA}
   ]]>
  </style>
 </defs>
 <g id="Capa_x0020_1">
  <metadata id="CorelCorpID_0Corel-Layer"/>
  <rect class="fil0 str0" x="4623" y="623" width="19988" height="19988"/>
  <path class="fil1 str1" d="M24623 20623l0 -12604c-1264,237 -2096,1642 -1907,2864 -146,-122 -420,-237 -593,-300 -474,-173 -1879,-173 -2064,480 37,79 1477,-520 1862,1008 76,301 44,173 77,462 19,162 39,334 2,488l-45 30c-10,-4 -115,-78 -245,-131 -282,-116 -687,-190 -994,-105 -113,31 -174,77 -277,116 -146,55 -556,651 -475,872 479,-270 913,-640 1395,-196 358,351 568,923 329,1394 -122,240 -163,395 -397,567 -461,338 -977,326 -1438,2 -439,-308 -662,-550 -980,-963 -146,-189 -237,-396 -373,-590 -267,-380 -538,-756 -802,-1138 -131,-190 -258,-387 -388,-574 -137,-197 -281,-351 -401,-561 -158,-276 -354,-724 -494,-957 -189,-315 -328,-650 -461,-992 -86,-221 -190,-481 -262,-705 -38,-118 -94,-220 -132,-333 -43,-129 -49,-281 -99,-398 -81,-187 -60,-176 -77,-370 -11,-124 -69,-253 -95,-382 -202,-1016 -217,-2297 472,-3156 117,-146 332,-372 483,-479 96,-68 176,-137 268,-205 94,-70 218,-113 323,-166 580,-295 971,-339 1623,-283 429,37 981,453 1052,878 167,1008 -402,1165 -486,1377 102,16 424,-32 527,-64 152,-47 300,-101 408,-218 209,-228 362,-476 482,-763 184,-438 172,-1150 -4,-1597 -35,-90 -201,-339 -214,-401 58,-110 174,-113 271,-183 302,-213 368,-783 197,-883 -36,78 -64,119 -126,172 -123,105 -444,186 -594,214 -325,61 -636,87 -962,133 -866,122 -917,92 -1850,342 -2389,483 -3508,3329 -2955,5664 133,887 298,1329 618,2112 106,258 237,506 333,769 16,45 71,167 78,196 156,596 -62,549 -577,329 -466,-200 -822,-259 -1272,-392 -185,-55 -263,-66 -453,-89 -317,-37 -618,-160 -934,-180 -159,-10 -326,-46 -491,-55 -110,-6 -143,0 -256,-24 -42,-9 -564,12 -716,-3 -190,-20 -755,77 -952,133 -563,160 -1061,343 -1541,683 -58,41 -117,51 -173,97 -235,194 -224,204 -426,401 -49,47 -105,75 -150,121 -315,323 -586,745 -794,1147 -32,63 -137,340 -151,407 -9,43 -95,209 -145,411 -20,80 -15,155 -34,237 -66,282 -147,982 -125,1250 13,168 25,337 7,505 -93,844 -70,942 -489,1714 181,45 481,-23 629,-138 235,-182 443,-442 508,-633 151,7 341,359 755,536 311,134 1089,87 1428,-49 382,-152 281,-86 656,-341 117,-79 262,-199 338,-320 70,-112 159,-382 142,-504 -125,22 -192,118 -272,205 -93,103 -178,136 -301,188 -773,326 -1584,-51 -1949,-796 -145,-296 -173,-445 -198,-774 -6,-93 72,-722 101,-812 93,-289 111,-440 299,-698 136,-188 277,-393 424,-571 270,-327 812,-622 1205,-768 900,-336 1710,-218 2614,-111 393,46 798,160 1176,276 363,110 738,279 1093,407 113,41 265,71 367,123 113,57 210,109 326,163 218,101 428,239 647,350 401,203 866,498 1229,763 402,293 685,607 1056,920 314,264 717,718 919,1075 909,1608 -375,2871 -1370,2078 -1089,-866 -209,-1673 253,-1929 -1125,-195 -1690,371 -2020,1438 -600,-271 -959,-1655 -655,-2592 -1503,747 -1090,2021 -941,2846 -1498,369 -1866,1290 -2212,2533 4223,19 9135,0 12815,0z"/>
  <path class="fil2 str2" d="M6862 4321c-1884,1415 878,3805 2069,1222 120,175 889,848 1073,1079 56,71 301,338 256,426 -1487,-131 -2778,-358 -3674,1548 -18,111 -50,189 -10,286 889,-929 2107,-1626 5295,-197 388,183 1055,672 1419,947 190,145 199,225 421,93 -4,-9 -120,-185 -130,-198 -351,-481 -589,-870 -899,-1364 -644,-1027 -1162,-2923 -645,-4095 317,-718 221,-808 935,-1325 101,-73 106,-87 46,-196 -2017,-276 -2661,2633 -2104,4158 6,44 11,84 -43,110 -116,55 -166,-5 -371,-251 -189,-226 -438,-573 -624,-776l-457 -554c-53,-68 -165,-154 -169,-236 484,-379 1189,-187 1384,-1258 225,-1235 -1538,-1801 -2186,-1048 -73,86 -301,459 -320,231 -918,-2646 -4431,417 -1266,1398z"/>
 </g>
</svg>
