<?xml version="1.0" encoding="UTF-8"?>
<!DOCTYPE svg PUBLIC "-//W3C//DTD SVG 1.1//EN" "http://www.w3.org/Graphics/SVG/1.1/DTD/svg11.dtd">
<!-- Creator: CorelDRAW X8 -->
<svg xmlns="http://www.w3.org/2000/svg" xml:space="preserve" width="297mm" height="210mm" version="1.1" style="shape-rendering:geometricPrecision; text-rendering:geometricPrecision; image-rendering:optimizeQuality; fill-rule:evenodd; clip-rule:evenodd"
viewBox="0 0 29700 21000"
 xmlns:xlink="http://www.w3.org/1999/xlink">
 <defs>
  <style type="text/css">
   <![CDATA[
    .str1 {stroke:#D08280;stroke-width:20}
    .str2 {stroke:#EBBDBF;stroke-width:20}
    .str0 {stroke:#F3EFEE;stroke-width:20}
    .fil2 {fill:#D08280}
    .fil0 {fill:#EBBDBF}
    .fil1 {fill:#F3EFEE}
   ]]>
  </style>
 </defs>
 <g id="Capa_x0020_1">
  <metadata id="CorelCorpID_0Corel-Layer"/>
  <rect class="fil0" x="5060" y="560" width="20000" height="20000"/>
  <polygon class="fil1 str0" points="15027,745 18514,2190 22001,3634 23445,7121 24890,10608 23445,14094 22001,17581 18514,19025 15027,20470 11541,19025 8054,17581 6609,14094 5165,10608 6609,7121 8054,3634 11541,2190 "/>
  <polygon class="fil2 str1" points="14894,6257 14980,10684 21779,3703 "/>
  <polygon class="fil2 str1" points="15080,15071 15060,10642 8157,17521 "/>
  <polygon class="fil0 str2" points="15090,15066 15042,10638 22050,17409 "/>
  <polygon class="fil0 str2" points="15064,6216 15114,10644 8103,3875 "/>
  <polygon class="fil2 str1" points="10705,10737 15131,10619 8102,3869 "/>
  <polygon class="fil2 str1" points="19454,10523 15026,10595 21985,17417 "/>
  <polygon class="fil0 str2" points="19464,10585 15035,10582 21888,3653 "/>
  <polygon class="fil0 str2" points="10650,10576 15079,10580 8226,17509 "/>
 </g>
</svg>
