<?xml version="1.0" encoding="UTF-8"?>
<!DOCTYPE svg PUBLIC "-//W3C//DTD SVG 1.1//EN" "http://www.w3.org/Graphics/SVG/1.1/DTD/svg11.dtd">
<!-- Creator: CorelDRAW X8 -->
<svg xmlns="http://www.w3.org/2000/svg" xml:space="preserve" width="297mm" height="210mm" version="1.1" style="shape-rendering:geometricPrecision; text-rendering:geometricPrecision; image-rendering:optimizeQuality; fill-rule:evenodd; clip-rule:evenodd"
viewBox="0 0 29700 21000"
 xmlns:xlink="http://www.w3.org/1999/xlink">
 <defs>
  <style type="text/css">
   <![CDATA[
    .str0 {stroke:#F5F4F0;stroke-width:20}
    .str2 {stroke:#00AFEF;stroke-width:7.62}
    .str1 {stroke:#98DAD0;stroke-width:7.62}
    .str3 {stroke:#D47A7C;stroke-width:7.62}
    .fil2 {fill:#00AFEF}
    .fil1 {fill:#98DAD0}
    .fil3 {fill:#D47A7C}
    .fil0 {fill:#F5F4F0}
   ]]>
  </style>
 </defs>
 <g id="Capa_x0020_1">
  <metadata id="CorelCorpID_0Corel-Layer"/>
  <rect class="fil0 str0" x="4565" y="742" width="20000" height="20000"/>
  <path class="fil1 str1" d="M17452 18713c290,166 407,-478 1066,-1341l3663 1414 332 -157 -974 -3595c-9,-40 461,-568 582,-636 752,-1061 1175,-2766 2146,-3225 -158,-364 -868,-829 -1150,-1348 -504,-1251 -582,-1751 -2160,-2623 749,-1440 693,-2280 958,-3924l-193 -216 -3394 1147c-142,85 -285,169 -427,253 -160,-406 -432,-769 -792,-1119 -664,-1213 -2180,-1119 -2821,-1969 -1308,1293 -1998,459 -3056,1941 -112,191 -566,1257 -713,1303l-959 -488c326,159 651,319 976,479 -489,788 -857,742 683,2282 171,171 706,585 730,787 47,388 -77,970 -574,939 -1166,247 -1647,-3183 -4611,-383 -97,847 -2275,2570 -1802,2831 477,169 1592,2253 2058,2749 315,330 690,592 878,707 276,169 413,114 383,263 -23,114 -121,155 -204,352 -241,569 -478,1750 -541,2375 -216,2127 2902,-179 3765,-52l343 407 -169 -248 479 693c863,1023 1197,697 2096,1310 252,280 450,619 752,1050 369,-244 653,-897 1053,-1069 552,-276 1058,-478 1597,-889z"/>
  <path class="fil2 str2" d="M13963 14646c128,429 385,1447 842,912 539,-633 471,-1252 739,-1846 549,-108 1419,-692 1423,-1590 320,-263 810,-137 1351,-399 848,-410 1379,-406 431,-931 -521,-289 -1085,-476 -1636,-692 -87,-303 -369,-1377 -1729,-1796 -176,-219 -90,-223 -353,-979 -674,-2094 -907,-285 -1543,948 -941,191 -1549,948 -1510,1614 -368,274 -657,212 -1332,381 -2503,830 864,1333 1255,1667 10,290 569,1335 1525,1669 384,383 292,506 537,1042z"/>
  <path class="fil3 str3" d="M17087 3320c411,438 673,843 897,1308l364 -438 3393 -1148 193 216 -464 2884 10 -1c-223,367 -399,674 -622,1041 497,224 872,487 1171,758 410,-473 748,-156 975,-1051 115,-456 -1,-1437 14,-1960 -205,-2102 464,-2253 200,-3292 -407,-104 -1196,773 -2880,621 -1050,88 -2751,-275 -3251,1062z"/>
  <path class="fil3 str3" d="M6764 8234c501,-497 920,-828 1583,-975l-108 -26 -237 -162 -899 -2029c-86,-48 -324,-1183 -203,-1402 147,-268 1117,-37 1209,71l98 57 150 20 79 21 1144 301 472 241 486 248 22 -7 680 -1293 -17 -27c-1230,-1015 -892,-941 -3283,-1002 -879,98 -1914,-255 -2696,-134 -402,627 610,929 315,4198 -61,710 662,1419 1205,1900z"/>
  <path class="fil3 str3" d="M7039 13795c-987,1230 -780,1204 -726,2661 29,753 66,1051 -74,1810 -52,280 -348,1213 37,1359 88,33 1511,-142 1727,-174 688,-102 1223,79 1914,84 897,7 861,43 1512,-531 353,-311 546,-462 639,-582 -140,-106 -239,-287 -424,-556l-416 -528c-863,-128 -3888,2281 -3673,153 64,-625 325,-1784 566,-2352 192,-454 56,-224 256,-441 -200,-78 -1136,-684 -1338,-903z"/>
  <path class="fil2 str2" d="M18348 4190c-786,659 -51,845 -41,2002 6,818 -1579,1009 -1377,1809 299,1184 1153,405 1632,-171 1097,-1321 1875,-522 2312,-674l606 -1015 -10 1 445 -2864 -193 -216 -3374 1128z"/>
  <path class="fil3 str3" d="M21146 15060l1149 3478 -94 228 -3683 -1394c-326,470 -590,917 -1066,1341 2571,1583 4291,529 6225,1325 -549,-776 694,-4912 -1289,-6062 -177,98 -561,872 -1242,1084z"/>
  <path class="fil2 str2" d="M18616 14220c-466,-588 -1412,-1035 -1535,-60 -59,460 809,965 1127,1485 1185,1935 -1201,1583 2421,2585 661,182 1937,1086 1794,148 -79,-519 -499,-1938 -719,-2406 -356,-2198 -1473,284 -3088,-1752z"/>
  <path class="fil2 str2" d="M7103 5042l899 2029c402,399 828,-144 1727,361 356,218 766,1139 1612,1192 497,30 674,-578 628,-966 -25,-202 -560,-616 -731,-787 -1539,-1540 -736,-1644 -697,-2260l-489 -260 -472 -241c-1017,-267 -1620,-631 -2536,-569 -31,36 -125,70 -156,106 6,566 74,959 215,1395z"/>
  <path class="fil2 str2" d="M12307 14050c154,-668 -672,-1082 -1371,-258 -437,515 -787,1038 -1540,1040 -979,3 -1105,-682 -1472,812 -186,757 -349,1463 -358,2281 -14,1255 3628,-538 3662,-587 77,-112 -600,-794 -48,-1833 244,-460 1013,-959 1127,-1455z"/>
 </g>
</svg>
