<?xml version="1.0" encoding="UTF-8"?>
<!DOCTYPE svg PUBLIC "-//W3C//DTD SVG 1.1//EN" "http://www.w3.org/Graphics/SVG/1.1/DTD/svg11.dtd">
<!-- Creator: CorelDRAW X8 -->
<svg xmlns="http://www.w3.org/2000/svg" xml:space="preserve" width="297mm" height="210mm" version="1.1" style="shape-rendering:geometricPrecision; text-rendering:geometricPrecision; image-rendering:optimizeQuality; fill-rule:evenodd; clip-rule:evenodd"
viewBox="0 0 29700 21000"
 xmlns:xlink="http://www.w3.org/1999/xlink">
 <defs>
  <style type="text/css">
   <![CDATA[
    .str0 {stroke:#F5FAF6;stroke-width:20}
    .str3 {stroke:#00AFEF;stroke-width:7.62}
    .str2 {stroke:#38A9F5;stroke-width:7.62}
    .str4 {stroke:#9BD4DB;stroke-width:7.62}
    .str1 {stroke:#E4837D;stroke-width:7.62}
    .fil3 {fill:#00AFEF}
    .fil2 {fill:#38A9F5}
    .fil4 {fill:#9BD4DB}
    .fil1 {fill:#E4837D}
    .fil0 {fill:#F5FAF6}
   ]]>
  </style>
 </defs>
 <g id="Capa_x0020_1">
  <metadata id="CorelCorpID_0Corel-Layer"/>
  <rect class="fil0 str0" x="4840" y="757" width="19945" height="19769"/>
  <path class="fil1 str1" d="M16002 11603c93,62 289,20 530,376 24,36 -6,13 33,48 55,310 315,783 655,863 304,47 541,-28 771,-218 56,-46 87,-101 132,-160 190,-253 172,-57 382,168 267,285 771,322 1066,61 222,-195 248,-547 595,-919 89,-96 165,-164 282,-227 16,-277 -222,-567 -419,-696 -51,-34 -108,-61 -163,-90l244 -210c169,-130 387,-587 369,-720 -177,-90 -304,-222 -490,-448 -118,-143 -217,-482 -353,-676 -154,-219 -537,-261 -771,-168 -326,130 -395,459 -510,524 -104,-111 -288,-472 -516,-535 -480,-125 -697,-57 -985,378 -132,199 -98,175 -195,327 -42,66 -25,76 -91,156 -83,99 -145,184 -265,254 -156,91 -231,-32 -217,233 21,405 538,684 570,799 -266,62 -737,545 -654,880z"/>
  <path class="fil2 str2" d="M20366 17226c171,254 225,461 271,846 231,46 487,65 855,356 183,-93 482,-318 805,-307 53,-335 112,-525 314,-779 -188,-219 -305,-623 -292,-842 -443,-54 -677,-208 -847,-291 -297,161 -561,217 -764,285 -62,281 -120,459 -342,732z"/>
  <path class="fil1 str1" d="M12652 8227c93,63 289,20 530,377 24,36 -6,13 32,47 56,311 315,784 656,864 304,47 541,-28 771,-218 56,-46 87,-102 132,-161 190,-253 172,-56 382,169 267,284 771,321 1066,61 222,-196 248,-547 595,-919 89,-96 165,-165 281,-227 17,-277 -221,-567 -418,-696 -51,-34 -108,-62 -163,-90l244 -210c169,-130 387,-587 369,-720 -177,-91 -304,-222 -490,-448 -118,-144 -218,-482 -353,-676 -154,-219 -537,-262 -771,-168 -326,130 -395,459 -510,523 -104,-110 -288,-472 -516,-534 -480,-125 -697,-58 -985,377 -132,200 -98,176 -195,328 -42,66 -25,76 -91,155 -83,100 -145,185 -265,254 -156,92 -231,-31 -217,234 21,405 538,684 570,799 -267,62 -737,545 -654,879z"/>
  <path class="fil1 str1" d="M9269 11538c93,62 289,20 530,377 25,36 -6,13 33,47 55,311 315,784 655,864 304,47 542,-29 771,-218 56,-47 88,-102 132,-161 190,-253 172,-56 382,169 267,284 771,321 1067,61 222,-196 247,-547 594,-919 89,-96 165,-165 282,-227 16,-277 -222,-567 -419,-697 -51,-33 -108,-61 -163,-89l244 -210c169,-130 387,-587 369,-720 -177,-91 -304,-222 -490,-449 -118,-143 -217,-481 -353,-675 -153,-219 -537,-262 -771,-168 -326,130 -395,459 -510,523 -104,-110 -288,-472 -516,-534 -480,-125 -696,-58 -985,377 -132,200 -97,176 -195,328 -42,66 -24,76 -91,155 -83,100 -145,184 -265,254 -156,92 -231,-31 -217,234 21,405 538,684 570,799 -266,62 -737,545 -654,879z"/>
  <path class="fil1 str1" d="M12640 14795c93,60 289,19 530,361 24,34 -6,12 32,45 56,297 315,749 656,825 304,45 541,-27 771,-208 56,-44 87,-97 132,-154 190,-241 172,-53 382,161 267,273 771,308 1066,59 222,-187 248,-523 595,-879 89,-91 165,-157 281,-216 17,-265 -221,-543 -418,-666 -51,-32 -108,-59 -163,-86l244 -201c169,-124 387,-561 369,-688 -177,-86 -304,-212 -490,-428 -118,-138 -218,-461 -354,-646 -153,-210 -536,-250 -771,-161 -325,124 -394,439 -509,500 -104,-105 -288,-451 -516,-511 -480,-119 -697,-55 -985,361 -132,191 -98,168 -195,313 -42,64 -25,73 -91,149 -83,95 -145,176 -265,243 -156,87 -231,-30 -217,223 21,387 538,654 570,764 -267,59 -737,521 -654,840z"/>
  <path class="fil3 str3" d="M13787 10639c172,253 226,460 272,846 231,46 487,65 855,356 183,-94 482,-319 805,-307 52,-335 112,-526 314,-780 -189,-219 -305,-622 -292,-841 -443,-54 -678,-209 -848,-292 -296,161 -560,217 -764,286 -61,281 -120,458 -342,732z"/>
  <path class="fil3 str3" d="M17103 7216c171,253 225,460 271,846 231,45 487,65 855,355 183,-93 483,-318 805,-307 53,-334 113,-525 314,-779 -188,-219 -305,-622 -292,-841 -443,-54 -677,-209 -847,-292 -297,161 -560,217 -764,286 -61,281 -120,458 -342,732z"/>
  <path class="fil3 str3" d="M13812 3832c171,254 225,461 271,846 231,46 487,65 855,356 183,-93 482,-318 805,-307 52,-335 112,-525 314,-779 -189,-220 -305,-623 -292,-842 -443,-54 -678,-208 -848,-291 -296,161 -560,217 -764,285 -61,281 -120,459 -341,732z"/>
  <path class="fil3 str3" d="M10438 7168c171,253 225,460 271,846 231,45 487,65 855,355 183,-93 482,-318 805,-307 52,-334 112,-525 314,-779 -188,-219 -305,-622 -292,-841 -443,-54 -678,-209 -848,-292 -296,161 -560,217 -764,286 -61,281 -120,458 -341,732z"/>
  <path class="fil3 str3" d="M7128 10437c172,253 225,461 272,846 231,46 487,65 855,356 182,-93 482,-319 805,-307 52,-335 112,-526 314,-779 -189,-220 -305,-623 -292,-842 -443,-54 -678,-208 -848,-291 -296,161 -560,216 -764,285 -61,281 -120,458 -342,732z"/>
  <path class="fil3 str3" d="M7172 3815c171,253 225,460 271,845 231,46 487,65 855,356 183,-93 482,-318 805,-307 52,-335 112,-525 314,-779 -188,-219 -305,-623 -292,-842 -443,-54 -678,-208 -848,-291 -296,161 -560,217 -764,285 -61,281 -120,459 -341,733z"/>
  <path class="fil3 str3" d="M20580 3952c171,253 225,460 272,846 230,45 486,65 854,355 183,-93 483,-318 805,-306 53,-335 113,-526 314,-780 -188,-219 -305,-622 -292,-841 -443,-54 -677,-209 -847,-292 -297,161 -560,217 -764,286 -61,281 -120,458 -342,732z"/>
  <path class="fil3 str3" d="M20415 10598c171,253 225,461 272,846 230,46 486,65 854,356 183,-93 483,-318 805,-307 53,-335 113,-526 314,-779 -188,-220 -305,-623 -292,-842 -443,-54 -677,-208 -847,-291 -297,161 -560,217 -764,285 -61,281 -120,458 -342,732z"/>
  <path class="fil2 str2" d="M17116 13939c171,253 225,461 272,846 231,46 486,65 854,356 183,-93 483,-319 805,-307 53,-335 113,-526 314,-779 -188,-220 -304,-623 -292,-842 -443,-54 -677,-208 -847,-291 -297,161 -560,216 -764,285 -61,281 -120,458 -342,732z"/>
  <path class="fil2 str2" d="M13772 17217c172,253 226,461 272,846 231,46 487,65 855,356 183,-93 482,-318 805,-307 52,-335 112,-526 314,-779 -189,-220 -305,-623 -292,-842 -443,-54 -678,-208 -848,-291 -296,161 -560,217 -764,285 -61,281 -120,458 -342,732z"/>
  <path class="fil2 str2" d="M10430 13914c171,254 225,461 272,846 231,46 486,65 855,356 182,-93 482,-318 804,-307 53,-335 113,-526 314,-779 -188,-220 -304,-623 -292,-842 -442,-54 -677,-208 -847,-291 -296,161 -560,217 -764,285 -61,281 -120,458 -342,732z"/>
  <path class="fil2 str2" d="M7128 17190c172,253 225,461 272,846 231,46 487,65 855,356 182,-93 482,-318 805,-307 52,-335 112,-526 314,-779 -189,-220 -305,-623 -292,-842 -443,-54 -678,-208 -848,-291 -296,161 -560,217 -764,285 -61,281 -120,458 -342,732z"/>
  <path class="fil3 str3" d="M12760 757c-93,183 -282,416 -270,738 -335,53 -526,113 -780,314 -219,-188 -622,-305 -841,-292 -54,-443 -164,-590 -247,-760 960,0 1156,0 2138,0z"/>
  <path class="fil3 str3" d="M24789 1758c-220,-189 -519,-230 -739,-217 -53,-443 -176,-614 -259,-784 479,0 773,9 998,0 0,202 0,371 0,1001z"/>
  <path class="fil3 str3" d="M4840 1758c219,-189 519,-230 738,-217 54,-443 176,-614 259,-784 -479,0 -772,9 -997,0 0,202 0,371 0,1001z"/>
  <path class="fil2 str2" d="M4840 19527c219,188 519,229 738,216 54,443 176,614 259,784 -479,0 -772,-9 -997,0 0,-202 0,-371 0,-1000z"/>
  <path class="fil2 str2" d="M24785 19527c-219,188 -519,229 -738,216 -54,443 -176,614 -259,784 479,0 772,-9 997,0 0,-202 0,-371 0,-1000z"/>
  <path class="fil4 str4" d="M16047 4988c93,63 289,20 530,377 24,36 -6,13 32,47 56,311 315,784 656,864 304,47 541,-28 771,-218 56,-46 87,-102 132,-161 190,-253 172,-56 382,169 267,284 771,321 1066,61 222,-196 248,-547 595,-919 89,-96 165,-165 281,-227 17,-277 -221,-567 -418,-696 -51,-34 -108,-62 -163,-90l244 -210c169,-130 387,-587 369,-720 -178,-91 -304,-222 -490,-448 -118,-144 -218,-482 -354,-676 -153,-219 -536,-262 -771,-168 -325,130 -394,459 -509,523 -104,-110 -288,-472 -516,-534 -480,-125 -697,-58 -985,378 -132,199 -98,175 -195,327 -42,66 -25,76 -91,155 -83,100 -145,185 -265,254 -156,92 -231,-31 -217,234 21,405 538,684 570,799 -267,62 -737,545 -654,879z"/>
  <path class="fil4 str4" d="M9383 4884c94,62 289,20 531,377 24,36 -7,13 32,47 55,311 315,784 655,863 304,47 542,-28 772,-218 56,-46 87,-101 131,-160 190,-253 172,-56 383,168 266,285 770,322 1066,62 222,-196 247,-547 594,-920 89,-95 165,-164 282,-226 16,-277 -221,-568 -418,-697 -52,-33 -109,-61 -163,-89l244 -211c168,-130 386,-586 369,-719 -178,-91 -305,-222 -491,-449 -118,-143 -217,-481 -353,-675 -153,-219 -537,-262 -771,-168 -325,130 -395,459 -510,523 -104,-111 -288,-472 -516,-535 -480,-125 -696,-57 -985,378 -132,200 -97,176 -195,327 -42,67 -24,76 -91,156 -83,100 -145,184 -265,254 -156,91 -231,-31 -217,234 21,404 538,683 570,799 -266,62 -737,545 -654,879z"/>
  <path class="fil3 str3" d="M19420 766c-93,183 -282,416 -270,738 -335,53 -526,113 -779,314 -220,-188 -623,-305 -842,-292 -54,-443 -164,-590 -247,-760 960,0 1156,0 2138,0z"/>
  <path class="fil4 str4" d="M19358 8374c93,62 289,20 530,377 24,35 -6,12 32,47 56,310 315,783 656,863 304,47 541,-28 771,-218 56,-46 87,-101 132,-160 190,-253 172,-56 382,168 267,285 771,322 1066,61 222,-195 248,-547 595,-919 89,-96 165,-164 281,-226 17,-277 -221,-568 -418,-697 -51,-34 -108,-61 -163,-90l244 -210c169,-130 387,-586 369,-720 -178,-90 -304,-221 -490,-448 -118,-143 -218,-481 -354,-676 -153,-218 -536,-261 -771,-168 -325,130 -394,460 -509,524 -104,-111 -288,-472 -516,-535 -480,-125 -697,-57 -985,378 -132,200 -98,175 -195,327 -42,66 -25,76 -91,156 -83,99 -145,184 -265,254 -156,91 -231,-32 -217,234 21,404 538,683 570,799 -267,62 -737,545 -654,879z"/>
  <path class="fil3 str3" d="M24777 8534c-163,-93 -370,-282 -657,-271 -47,-334 -100,-525 -280,-779 168,-219 272,-623 260,-842 395,-54 526,-163 677,-246 0,960 0,1156 0,2138z"/>
  <path class="fil2 str2" d="M24785 15158c-175,-93 -397,-282 -706,-270 -50,-335 -107,-526 -300,-780 180,-219 292,-622 279,-841 424,-54 565,-164 727,-247 0,960 0,1156 0,2138z"/>
  <path class="fil4 str4" d="M19358 14858c93,63 289,20 530,377 24,36 -6,13 32,48 56,310 315,783 656,863 304,47 541,-28 771,-218 56,-46 87,-101 132,-160 190,-253 172,-57 382,168 267,285 771,322 1066,61 222,-195 248,-547 595,-919 89,-96 165,-165 281,-227 17,-277 -221,-567 -418,-696 -51,-34 -108,-62 -163,-90l244 -210c169,-130 387,-587 369,-720 -178,-90 -304,-222 -490,-448 -118,-144 -218,-482 -354,-676 -153,-219 -536,-261 -771,-168 -325,130 -394,459 -509,524 -104,-111 -288,-472 -516,-535 -480,-125 -697,-58 -985,378 -132,199 -98,175 -195,327 -42,66 -25,76 -91,156 -83,99 -145,184 -265,254 -156,91 -231,-32 -217,233 21,405 538,684 570,799 -267,62 -737,545 -654,879z"/>
  <path class="fil4 str4" d="M15951 18157c93,63 289,20 530,377 24,36 -6,13 32,48 56,310 316,783 656,863 304,47 541,-28 771,-218 56,-46 87,-101 132,-160 190,-253 172,-57 382,168 267,285 771,322 1066,61 222,-195 248,-547 595,-919 89,-96 165,-165 281,-227 17,-277 -221,-567 -418,-696 -51,-34 -108,-62 -163,-90l244 -210c169,-130 387,-587 369,-720 -177,-90 -304,-222 -490,-448 -118,-144 -218,-482 -353,-676 -154,-219 -537,-262 -771,-168 -326,130 -395,459 -510,523 -104,-110 -288,-471 -516,-534 -480,-125 -697,-58 -985,378 -132,199 -98,175 -195,327 -42,66 -25,76 -91,155 -83,100 -145,185 -265,254 -156,92 -231,-31 -217,234 21,405 538,684 570,799 -266,62 -737,545 -654,879z"/>
  <path class="fil2 str2" d="M17164 20511c93,-182 282,-415 270,-737 335,-53 526,-113 779,-314 220,188 623,304 842,292 54,443 164,590 247,759 -961,0 -1156,0 -2138,0z"/>
  <path class="fil2 str2" d="M10518 20511c93,-182 282,-415 270,-737 335,-53 526,-113 780,-314 219,188 622,304 841,292 54,443 164,590 247,759 -960,0 -1156,0 -2138,0z"/>
  <path class="fil4 str4" d="M9383 18095c92,61 283,20 520,370 23,35 -7,12 31,46 54,304 309,768 642,846 298,46 531,-28 756,-214 55,-45 86,-99 129,-157 187,-248 169,-55 375,165 261,279 755,315 1045,60 217,-192 242,-536 582,-901 88,-93 162,-161 276,-222 16,-271 -217,-556 -410,-682 -50,-33 -106,-60 -159,-88l239 -206c165,-127 379,-575 361,-705 -174,-89 -298,-218 -480,-440 -116,-140 -213,-471 -347,-662 -150,-214 -525,-256 -755,-164 -319,127 -386,450 -499,513 -102,-109 -283,-463 -506,-524 -470,-123 -682,-57 -965,370 -130,195 -96,172 -191,321 -42,64 -24,74 -89,152 -82,98 -143,181 -260,249 -153,89 -227,-31 -213,229 21,396 528,670 559,783 -261,61 -722,534 -641,861z"/>
  <path class="fil4 str4" d="M5946 14834c93,62 289,20 530,376 24,36 -6,13 33,48 55,310 315,783 655,863 304,47 542,-28 771,-218 56,-46 88,-101 132,-160 190,-253 172,-57 382,168 267,285 771,322 1066,61 223,-195 248,-547 595,-919 89,-96 165,-165 282,-227 16,-277 -222,-567 -419,-696 -51,-34 -108,-62 -163,-90l244 -210c169,-130 387,-587 369,-720 -177,-90 -304,-222 -490,-448 -118,-143 -217,-482 -353,-676 -153,-219 -537,-261 -771,-168 -326,130 -395,459 -510,524 -104,-111 -288,-472 -516,-535 -480,-125 -696,-57 -985,378 -132,199 -97,175 -195,327 -42,66 -24,76 -91,156 -83,99 -145,184 -265,254 -156,91 -231,-32 -217,233 21,405 538,684 570,799 -266,62 -737,545 -654,880z"/>
  <path class="fil2 str2" d="M4852 15026c182,-93 415,-282 737,-270 53,-335 113,-526 314,-780 -188,-219 -304,-622 -292,-841 -442,-54 -589,-164 -759,-247 0,960 0,1156 0,2138z"/>
  <path class="fil3 str3" d="M4852 8336c182,-93 415,-282 737,-270 53,-335 113,-526 314,-780 -188,-219 -304,-622 -292,-841 -442,-54 -589,-164 -759,-247 0,960 0,1156 0,2138z"/>
  <path class="fil4 str4" d="M5922 8107c94,63 289,20 531,377 24,36 -7,13 32,47 55,311 315,784 655,864 304,47 542,-28 772,-218 56,-46 87,-102 131,-161 190,-253 172,-56 383,169 266,284 770,321 1066,61 222,-196 247,-547 594,-919 89,-96 165,-165 282,-227 16,-277 -221,-567 -418,-696 -52,-34 -109,-62 -163,-90l244 -210c168,-130 386,-587 369,-720 -178,-91 -305,-222 -491,-448 -118,-144 -217,-482 -353,-676 -153,-219 -537,-262 -771,-168 -325,130 -395,459 -510,523 -104,-110 -288,-472 -516,-534 -480,-125 -696,-58 -985,377 -132,200 -97,176 -195,328 -42,66 -24,76 -91,155 -83,100 -145,185 -265,254 -156,92 -231,-31 -217,234 21,405 538,684 570,799 -266,62 -737,545 -654,879z"/>
  <path class="fil4 str4" d="M9882 20534l148 -128c169,-130 387,-586 369,-719 -177,-91 -304,-222 -490,-449 -118,-143 -218,-481 -354,-675 -153,-219 -536,-262 -771,-168 -325,130 -394,459 -509,523 -104,-111 -288,-472 -516,-535 -480,-125 -697,-57 -985,378 -132,200 -98,176 -195,327 -42,67 -25,76 -91,156 -83,100 -145,184 -265,254 -156,91 -231,-31 -217,234 21,404 538,683 570,799 1333,3 1833,3 3306,3z"/>
  <path class="fil4 str4" d="M16545 20534l147 -128c166,-130 381,-586 364,-719 -176,-91 -300,-222 -484,-449 -116,-143 -214,-481 -348,-675 -151,-219 -529,-262 -761,-168 -320,130 -388,459 -502,523 -103,-111 -284,-472 -509,-535 -473,-125 -687,-57 -971,378 -131,200 -96,176 -192,327 -42,67 -25,76 -90,156 -82,100 -143,184 -261,254 -154,91 -228,-31 -215,234 22,404 531,683 563,799 1314,3 1807,3 3259,3z"/>
  <path class="fil4 str4" d="M23095 20534l143 -122c161,-124 370,-560 353,-687 -170,-86 -291,-212 -470,-428 -112,-137 -208,-459 -338,-645 -147,-208 -514,-249 -739,-160 -312,124 -378,438 -488,500 -100,-106 -277,-451 -495,-511 -460,-119 -667,-55 -944,361 -126,190 -93,167 -186,312 -41,63 -24,73 -88,149 -80,95 -139,176 -254,242 -149,87 -221,-30 -208,223 21,386 516,653 546,763 1278,3 1757,3 3168,3z"/>
  <path class="fil4 str4" d="M22596 18203c90,60 277,19 508,364 23,34 -6,12 31,45 53,300 301,757 627,834 291,45 519,-27 739,-211 53,-44 213,-269 256,-326 -11,-547 1,-1431 28,-3194 -99,-107 -212,-374 -430,-435 -459,-120 -667,-55 -943,365 -127,193 -93,169 -187,316 -40,64 -23,73 -87,150 -80,97 -139,178 -253,246 -150,88 -222,-31 -208,225 20,391 515,660 545,772 -255,60 -705,526 -626,849z"/>
  <path class="fil4 str4" d="M22752 11613c84,60 261,19 478,364 22,35 -5,12 30,46 49,300 284,756 591,833 274,46 489,-27 696,-210 51,-45 202,-270 242,-327 -10,-547 1,-1430 27,-3194 -94,-107 -200,-374 -406,-434 -433,-121 -629,-56 -889,365 -120,192 -88,169 -176,316 -38,64 -22,73 -82,150 -75,96 -131,178 -239,245 -141,88 -209,-30 -197,226 20,391 486,660 515,771 -240,60 -665,527 -590,849z"/>
  <path class="fil4 str4" d="M22704 4948c85,60 263,19 483,364 22,34 -6,12 29,45 50,300 287,757 596,834 277,45 493,-27 703,-210 51,-45 203,-270 243,-327 -10,-547 1,-1431 27,-3194 -94,-107 -202,-374 -409,-434 -437,-121 -634,-56 -897,364 -120,193 -88,170 -177,316 -39,64 -22,74 -83,150 -76,97 -132,178 -241,246 -142,88 -211,-31 -198,225 20,391 490,661 519,772 -242,60 -671,526 -595,849z"/>
  <path class="fil4 str4" d="M7102 18119c-93,60 -289,19 -530,364 -24,34 6,12 -32,45 -56,300 -315,757 -656,834 -304,45 -541,-27 -771,-211 -56,-44 -223,-269 -268,-326 11,-547 -1,-1431 -29,-3194 103,-107 221,-374 449,-435 480,-120 697,-55 985,365 132,193 98,169 195,316 42,64 25,74 91,150 83,97 145,178 265,246 156,88 231,-31 217,225 -21,391 -538,660 -570,772 267,60 737,526 654,849z"/>
  <path class="fil4 str4" d="M7132 11439c-93,60 -289,20 -530,364 -24,35 6,13 -32,46 -56,300 -315,756 -656,833 -304,46 -541,-27 -771,-210 -56,-45 -223,-270 -268,-327 11,-546 -1,-1430 -29,-3194 103,-107 221,-374 449,-434 480,-121 697,-56 985,365 132,192 98,169 195,316 42,64 25,73 91,150 83,96 145,178 265,245 156,88 231,-30 217,226 -21,391 -538,660 -570,771 267,60 737,527 654,849z"/>
  <path class="fil4 str4" d="M7132 4786c-93,60 -289,19 -530,364 -24,34 6,12 -32,45 -56,300 -315,757 -656,834 -304,45 -541,-27 -771,-210 -56,-45 -223,-270 -268,-327 11,-547 -1,-1431 -29,-3194 103,-107 221,-374 449,-434 480,-121 697,-56 985,364 132,193 98,170 195,316 42,64 25,74 91,150 83,97 145,178 265,246 156,88 231,-30 217,226 -21,390 -538,660 -570,771 267,60 737,526 654,849z"/>
  <path class="fil4 str4" d="M9873 770l149 118c168,119 386,538 369,661 -178,83 -304,204 -491,412 -117,131 -217,442 -353,620 -153,201 -536,241 -771,154 -325,-119 -394,-421 -510,-480 -103,101 -288,433 -516,491 -479,115 -696,53 -985,-347 -132,-184 -97,-161 -194,-301 -43,-61 -25,-70 -92,-143 -83,-91 -145,-169 -264,-233 -157,-84 -232,29 -218,-215 22,-371 539,-628 570,-734 1334,-3 1834,-3 3306,-3z"/>
  <path class="fil4 str4" d="M16621 770l146 118c166,119 382,538 364,661 -175,83 -300,204 -483,412 -117,131 -215,442 -349,620 -151,201 -529,241 -760,154 -321,-119 -389,-421 -503,-480 -102,101 -284,433 -509,491 -473,115 -686,53 -971,-347 -130,-184 -96,-161 -192,-301 -42,-61 -24,-70 -90,-143 -82,-91 -143,-169 -261,-233 -154,-84 -228,29 -214,-215 21,-371 531,-628 562,-734 1315,-3 1808,-3 3260,-3z"/>
  <path class="fil4 str4" d="M23307 770l143 112c161,114 370,514 353,631 -170,80 -291,195 -470,393 -113,126 -208,423 -338,593 -147,192 -515,229 -739,147 -312,-114 -378,-403 -489,-459 -99,97 -276,414 -494,469 -460,109 -667,50 -944,-331 -127,-175 -93,-154 -187,-287 -40,-58 -23,-67 -87,-137 -80,-87 -139,-161 -254,-222 -150,-80 -222,27 -208,-205 21,-355 516,-600 546,-701 1278,-3 1757,-3 3168,-3z"/>
 </g>
</svg>
