<?xml version="1.0" encoding="UTF-8"?>
<!DOCTYPE svg PUBLIC "-//W3C//DTD SVG 1.1//EN" "http://www.w3.org/Graphics/SVG/1.1/DTD/svg11.dtd">
<!-- Creator: CorelDRAW X8 -->
<svg xmlns="http://www.w3.org/2000/svg" xml:space="preserve" width="297mm" height="210mm" version="1.1" style="shape-rendering:geometricPrecision; text-rendering:geometricPrecision; image-rendering:optimizeQuality; fill-rule:evenodd; clip-rule:evenodd"
viewBox="0 0 29700 21000"
 xmlns:xlink="http://www.w3.org/1999/xlink">
 <defs>
  <style type="text/css">
   <![CDATA[
    .str1 {stroke:#FFCC29;stroke-width:20}
    .str0 {stroke:#CE8F64;stroke-width:20}
    .fil1 {fill:#FFCC29}
    .fil0 {fill:#CE8F64}
   ]]>
  </style>
 </defs>
 <g id="Capa_x0020_1">
  <metadata id="CorelCorpID_0Corel-Layer"/>
  <rect class="fil0 str0" x="7750" y="3429" width="3758" height="3507"/>
  <rect class="fil1 str1" x="11497" y="3429" width="3758" height="3507"/>
  <rect class="fil0 str0" x="15245" y="3429" width="3758" height="3507"/>
  <rect class="fil1 str1" x="18992" y="3429" width="3758" height="3507"/>
  <rect class="fil1 str1" x="7750" y="6934" width="3758" height="3507"/>
  <rect class="fil0 str0" x="11497" y="6934" width="3758" height="3507"/>
  <rect class="fil1 str1" x="15245" y="6934" width="3758" height="3507"/>
  <rect class="fil0 str0" x="18992" y="6934" width="3758" height="3507"/>
  <rect class="fil0 str0" x="7750" y="10441" width="3758" height="3507"/>
  <rect class="fil1 str1" x="11497" y="10441" width="3758" height="3507"/>
  <rect class="fil0 str0" x="15245" y="10441" width="3758" height="3507"/>
  <rect class="fil1 str1" x="18992" y="10441" width="3758" height="3507"/>
  <rect class="fil1 str1" x="7750" y="13947" width="3758" height="3507"/>
  <rect class="fil0 str0" x="11497" y="13947" width="3758" height="3507"/>
  <rect class="fil1 str1" x="15245" y="13947" width="3758" height="3507"/>
  <rect class="fil0 str0" x="18992" y="13947" width="3758" height="3507"/>
 </g>
</svg>
