<?xml version="1.0" encoding="UTF-8"?>
<!DOCTYPE svg PUBLIC "-//W3C//DTD SVG 1.1//EN" "http://www.w3.org/Graphics/SVG/1.1/DTD/svg11.dtd">
<!-- Creator: CorelDRAW X8 -->
<svg xmlns="http://www.w3.org/2000/svg" xml:space="preserve" width="297mm" height="210mm" version="1.1" style="shape-rendering:geometricPrecision; text-rendering:geometricPrecision; image-rendering:optimizeQuality; fill-rule:evenodd; clip-rule:evenodd"
viewBox="0 0 29700 21000"
 xmlns:xlink="http://www.w3.org/1999/xlink">
 <defs>
  <style type="text/css">
   <![CDATA[
    .str0 {stroke:#FEFEFE;stroke-width:20}
    .fil3 {fill:#FEFEFE}
    .fil0 {fill:#83A2A4}
    .fil2 {fill:#C9E5DE}
    .fil1 {fill:#E6A6A5}
   ]]>
  </style>
 </defs>
 <g id="Capa_x0020_1">
  <metadata id="CorelCorpID_0Corel-Layer"/>
  <rect class="fil0" x="6067" y="530" width="20000" height="20000"/>
  <path class="fil1" d="M16573 7448c-21,314 -41,125 -45,278 -3,90 -36,111 -71,201 -96,247 -67,160 -217,335 -160,186 -197,139 -290,243l-76 -101c-318,-45 -111,-28 -303,-208 -87,-81 -132,-218 -172,-338 -24,-74 1,-170 -16,-228 -19,-62 -59,-28 -56,-176 12,-541 -3068,-1173 -3263,-879 -224,335 -98,546 -108,862 -20,644 107,1627 611,2126 143,141 228,246 482,357 185,82 465,172 626,248 27,13 121,91 175,123 125,74 165,366 106,452 -219,26 -710,165 -1066,458 -3,16 -321,396 -361,462 -410,670 -892,2059 -741,2705 309,91 617,10 928,13 668,6 2340,-323 2641,-950 41,-84 199,-279 210,-315 32,-99 68,214 222,-49 301,213 74,-98 154,-139 334,86 312,36 391,317l8 80 13 38 12 99c269,662 2448,1057 3158,925 191,-35 400,123 268,-513 -90,-431 -93,-1772 -682,-2510 -91,-13 -164,8 -228,-29 -175,-100 -411,-276 -579,-290 -50,-5 -315,-163 -391,-191 -163,-61 -207,-325 -23,-357 9,-105 -12,-157 155,-232 107,-47 203,-26 345,-93 97,-45 540,-233 550,-246 743,-470 1952,-2620 1501,-3329 -304,-303 -3379,-467 -3868,851z"/>
  <path class="fil2" d="M18940 9926c-10,13 -453,201 -550,246 -142,67 -238,46 -345,93 -148,66 -432,477 -132,589 76,28 341,186 391,191 168,14 404,190 579,290 64,37 137,16 228,29 234,-51 505,8 707,131 179,109 39,244 225,395 220,53 525,-435 283,166l-270 434c20,69 296,413 388,471 156,100 532,156 662,54 165,-128 295,-320 323,-531 54,-406 -142,-744 124,-716 43,-52 -92,-88 -121,-109 -46,-33 -105,-279 -356,-416 -220,-121 -415,-443 -302,-686 44,-94 400,-540 483,-592 46,-29 324,-213 329,-214 243,-53 183,-98 180,-293 12,-197 2,-417 -163,-535l26 -14 -178 -306 -344 -158 13 -28c-160,10 -327,-59 -423,8 -71,49 -116,31 -161,69 -131,86 -65,139 -113,351 70,129 280,303 368,419 94,125 255,539 25,577 -109,-71 -41,-392 -347,-347 -155,22 -333,184 -474,264 -122,69 -437,163 -561,179 -203,28 -506,218 -494,-11z"/>
  <path class="fil2" d="M14901 4730c-187,22 -465,10 -624,82 -643,293 -614,695 -541,1181l136 72c366,284 617,-28 855,-294l186 -154c456,37 9,286 -2,402 -13,130 45,277 151,322 307,311 214,1144 337,1517 40,120 90,365 177,446 161,151 223,154 300,215 114,-54 204,-71 364,-257 150,-175 121,-88 217,-335 35,-90 68,-111 71,-201 4,-153 59,-245 80,-559l173 -489 112 -252c89,-152 204,-132 289,-369 -331,-441 -41,-423 201,-283 192,271 463,357 695,360 281,-101 353,-831 143,-945 -158,-316 -656,-298 -1211,-431 -7,-77 53,11 -126,148 -38,29 -98,114 -123,152 -87,133 -88,15 -148,127 -133,252 -290,428 -572,520 -193,63 -537,-278 -671,-407 -86,-84 -205,-185 -253,-296 -50,-115 -87,-279 -216,-272z"/>
  <path class="fil1" d="M21766 9458c3,195 63,240 -180,293 -5,1 -283,185 -329,214 -83,52 -439,498 -483,592 -113,243 82,565 302,686 251,137 310,383 356,416 29,21 164,57 121,109 298,108 547,166 813,-70 58,-52 25,-316 77,-410 29,-53 246,-210 309,-265l-27 -70c153,-55 238,-379 136,-508 -106,-135 -220,-281 -244,-453 -60,-446 -449,-353 -626,-430 -64,-29 -168,-112 -225,-104z"/>
  <path class="fil1" d="M14901 4730c129,-7 166,157 216,272 48,111 167,212 253,296 134,129 478,470 671,407 282,-92 439,-268 572,-520 60,-112 61,6 148,-127 25,-38 85,-123 123,-152 239,-183 232,-369 225,-626 -241,-498 -491,-518 -722,-564 -213,-186 -326,-350 -700,-32 -295,88 -667,214 -772,624 -47,206 -25,223 -14,422z"/>
  <path class="fil2" d="M14893 16459c-186,-21 -465,-10 -624,-82 -643,-293 -614,-695 -540,-1181l135 -72c366,-283 617,29 855,295l186 153c456,-37 9,-286 -2,-402 -13,-130 45,-277 151,-322 307,-311 214,-1144 337,-1516 40,-121 90,-366 177,-447 162,-151 224,-154 301,-215 113,54 203,71 363,258 151,174 121,87 217,334 35,90 68,111 71,201 4,153 59,246 81,559l172 489 112 252c89,152 204,132 290,369 -332,441 -42,423 200,284 192,-272 463,-357 695,-360 282,101 353,830 144,944 -159,316 -657,298 -1212,431 -7,78 54,-11 -126,-148 -38,-29 -98,-114 -123,-151 -87,-133 -88,-16 -147,-128 -134,-252 -291,-427 -573,-520 -193,-62 -537,278 -670,408 -87,83 -206,184 -254,296 -50,115 -87,278 -216,271z"/>
  <path class="fil1" d="M14893 16459c129,7 166,-156 216,-271 48,-112 167,-213 254,-296 133,-130 477,-470 670,-408 282,93 439,268 573,520 59,112 60,-5 147,128 25,37 85,122 123,151 240,183 232,370 225,626 -241,498 -491,519 -722,565 -213,185 -325,349 -700,32 -294,-88 -667,-214 -772,-625 -47,-205 -25,-222 -14,-422z"/>
  <path class="fil2" d="M12974 9853c10,13 453,201 550,246 142,66 238,46 345,93 148,66 432,477 132,589 -76,28 -341,186 -391,190 -168,15 -404,191 -579,291 -64,37 -137,16 -228,29 -234,-51 -505,7 -707,130 -180,110 -39,245 -225,396 -220,52 -526,-435 -283,166l270 434c-20,68 -296,412 -388,471 -156,99 -532,155 -662,54 -165,-129 -295,-321 -323,-531 -54,-406 142,-744 -124,-716 -43,-52 92,-88 121,-109 45,-33 105,-279 356,-417 220,-120 415,-442 302,-685 -44,-94 -401,-541 -483,-592 -46,-29 -324,-213 -329,-214 -243,-53 -183,-99 -180,-294 -12,-196 -2,-416 163,-534l-27 -14 179 -307 344 -157 -13 -28c160,9 327,-59 423,8 71,49 116,31 161,69 131,86 65,139 113,350 -70,130 -280,304 -368,420 -94,125 -255,539 -25,577 108,-71 41,-392 347,-348 154,23 333,184 474,265 122,69 437,163 561,179 203,27 506,218 494,-11z"/>
  <path class="fil1" d="M10496 11797c-7,-129 156,-166 271,-216 112,-48 213,-167 296,-253 129,-134 470,-478 408,-671 -93,-282 -268,-439 -520,-572 -112,-60 5,-61 -128,-148 -37,-25 -122,-85 -151,-123 -183,-239 -370,-232 -626,-225 -498,241 -519,491 -565,722 -185,213 -349,325 -32,700 88,295 214,667 625,772 205,47 222,25 422,14z"/>
  <circle class="fil3 str0" cx="15940" cy="10690" r="1094"/>
 </g>
</svg>
