<?xml version="1.0" encoding="UTF-8"?>
<!DOCTYPE svg PUBLIC "-//W3C//DTD SVG 1.1//EN" "http://www.w3.org/Graphics/SVG/1.1/DTD/svg11.dtd">
<!-- Creator: CorelDRAW X8 -->
<svg xmlns="http://www.w3.org/2000/svg" xml:space="preserve" width="297mm" height="210mm" version="1.1" style="shape-rendering:geometricPrecision; text-rendering:geometricPrecision; image-rendering:optimizeQuality; fill-rule:evenodd; clip-rule:evenodd"
viewBox="0 0 29700 21000"
 xmlns:xlink="http://www.w3.org/1999/xlink">
 <defs>
  <style type="text/css">
   <![CDATA[
    .str0 {stroke:#FAA954;stroke-width:20}
    .str2 {stroke:#E6E7E8;stroke-width:7.62}
    .str1 {stroke:#A45E4D;stroke-width:7.62}
    .fil2 {fill:#E6E7E8}
    .fil0 {fill:#FAA954}
    .fil1 {fill:#A45E4D}
   ]]>
  </style>
 </defs>
 <g id="Capa_x0020_1">
  <metadata id="CorelCorpID_0Corel-Layer"/>
  <rect class="fil0 str0" x="5500" y="500" width="20000" height="20264"/>
  <path class="fil1 str1" d="M12367 3692c-1492,577 -4126,1129 -4774,4054 -97,438 -35,1050 -75,1495 -5,59 -114,81 -186,156 -76,80 -350,294 -268,416 130,194 364,-5 499,-63 92,-41 177,-60 268,-107 502,-256 2046,-820 2540,-896 298,-46 1147,-116 1421,-57 330,71 415,305 1029,520 173,61 1047,281 1134,42 -210,-68 -312,-213 -349,-317 -122,-346 1462,160 1546,188 331,108 733,202 959,467 426,-246 640,-420 1156,-515 353,-64 1129,-132 946,448 -158,501 -429,555 163,954 604,407 1379,1139 1862,1689 295,336 468,734 741,1032 337,368 513,567 741,1021 166,329 446,752 646,1073 222,8 426,56 621,151 324,159 589,396 901,512 291,-837 -596,-1909 -1563,-2166 -1270,-336 -989,-747 -1261,-1780 -725,-2619 -3084,-6551 -5408,-7899 -796,-461 -190,-1501 279,-1855 -148,-381 -911,-153 -1185,-78 -1039,286 -1596,888 -2383,1515z"/>
  <path class="fil2 str2" d="M23691 17055c-126,-90 -339,-210 -483,-265 -465,-177 -555,-595 -736,-1098 -43,-99 -127,-287 -162,-383 104,-32 -500,-912 -590,-1090 -593,-1182 -2234,-2994 -3344,-3742 -592,-399 -321,-453 -163,-954 295,-461 33,-540 -946,-448 -516,95 -730,269 -1156,515 -182,182 -417,245 -654,322 -432,142 -873,265 -1240,604 -176,163 -376,317 -557,479 -198,176 -327,348 -509,518 -96,90 -132,154 -199,265 -229,378 -350,373 -419,1029 -37,346 137,375 112,721 3,31 -167,186 -319,215 -101,22 -109,116 -94,149 156,120 2350,-523 2612,-558 1109,-198 1406,841 1904,611 -226,-351 -53,-450 63,-554 110,-99 615,-74 1232,93 1225,332 3787,2228 4256,3093 155,286 -9,530 -109,796 -223,599 -127,1633 363,1353 506,-289 812,-756 1506,-290 576,386 230,-959 -368,-1381z"/>
 </g>
</svg>
