<?xml version="1.0" encoding="UTF-8"?>
<!DOCTYPE svg PUBLIC "-//W3C//DTD SVG 1.1//EN" "http://www.w3.org/Graphics/SVG/1.1/DTD/svg11.dtd">
<!-- Creator: CorelDRAW X8 -->
<svg xmlns="http://www.w3.org/2000/svg" xml:space="preserve" width="297mm" height="210mm" version="1.1" style="shape-rendering:geometricPrecision; text-rendering:geometricPrecision; image-rendering:optimizeQuality; fill-rule:evenodd; clip-rule:evenodd"
viewBox="0 0 29700 21000"
 xmlns:xlink="http://www.w3.org/1999/xlink">
 <defs>
  <style type="text/css">
   <![CDATA[
    .str4 {stroke:#FFCC29;stroke-width:20}
    .str0 {stroke:#FFCC29;stroke-width:7.62}
    .str2 {stroke:#A1D8DD;stroke-width:7.62}
    .str3 {stroke:#C36867;stroke-width:7.62}
    .str1 {stroke:#F4F0F1;stroke-width:7.62}
    .fil0 {fill:#FFCC29}
    .fil2 {fill:#A1D8DD}
    .fil3 {fill:#C36867}
    .fil1 {fill:#F4F0F1}
   ]]>
  </style>
 </defs>
 <g id="Capa_x0020_1">
  <metadata id="CorelCorpID_0Corel-Layer"/>
  <path class="fil0 str0" d="M18842 2921c513,1301 1419,2366 2882,3027l0 -2868c0,-87 -71,-159 -159,-159l-2723 0z"/>
  <path class="fil0 str0" d="M10178 2921c-512,1324 -1428,2407 -2917,3074l0 -2915c0,-87 72,-159 159,-159l2758 0z"/>
  <path class="fil0 str0" d="M18909 17779c521,-1232 1412,-2239 2815,-2875l0 2716c0,87 -71,159 -159,159l-2656 0z"/>
  <path class="fil1 str1" d="M7261 13924c2076,776 3220,2196 3808,3855l6865 0c587,-1654 1725,-3071 3790,-3849l0 -7008c-2130,-800 -3276,-2281 -3846,-4001l-6737 0c-568,1741 -1721,3241 -3880,4046l0 6957z"/>
  <path class="fil0 str0" d="M10094 17779c-524,-1237 -1419,-2247 -2833,-2883l0 2724c0,87 72,159 159,159l2674 0z"/>
  <path class="fil2 str2" d="M4500 404l12913 0c32,477 89,951 179,1416l-6172 0c87,-456 142,-921 173,-1388 -299,-1 -599,-1 -898,-1 -33,478 -95,943 -191,1389l-4132 0c-100,0 -182,82 -182,183l0 4371c-506,137 -1062,236 -1674,294 0,292 0,584 0,876 606,-50 1162,-137 1674,-257l0 6315c-514,-120 -1073,-208 -1682,-259 0,293 0,585 0,877 615,57 1174,157 1682,296l0 4181c0,101 82,183 182,183l4081 0c121,503 197,1031 234,1577 299,-1 599,-1 898,-1 -35,-532 -102,-1061 -210,-1576l6253 0c-109,515 -175,1044 -210,1576 299,0 599,0 898,1 37,-546 113,-1074 234,-1577l4064 0c100,0 182,-82 182,-183l0 -4177c512,-140 1077,-242 1698,-300 1,-292 1,-584 1,-877 -616,52 -1181,141 -1699,263l0 -6361c517,122 1080,211 1694,262 0,-292 0,-585 0,-877 -620,-58 -1183,-159 -1694,-299l0 -4328c0,-101 -82,-183 -182,-183l-4104 0c-100,-454 -164,-928 -198,-1416l6188 0 0 20096 -20000 0 0 -20096z"/>
  <path class="fil3 str3" d="M10600 12393c28,12 44,-10 61,-35 176,-259 411,-870 1157,-1088 56,-10 170,-20 221,-20 1416,-2 1932,1658 860,2529 -150,102 -682,266 -671,396 295,388 1215,373 1374,524 1223,1621 1563,714 2063,-7 95,-132 816,-71 1125,-428 73,-91 121,-102 10,-155 -531,-250 -1057,-1029 -961,-1640 23,-547 518,-922 983,-1078l98 -14c1280,-89 1470,866 1685,1127 434,-251 339,-1270 504,-1394 991,-743 1458,-887 69,-1925 -147,-190 -40,-690 -534,-1249 -42,-58 -141,-87 -189,-31 -388,702 -1012,1344 -1873,988 -30,-13 -68,-27 -94,-46 -1360,-978 -311,-2312 279,-2423 81,-18 145,-26 57,-159 -508,-661 -1108,-368 -1256,-663 -673,-887 -1087,-1330 -1908,-45 -22,56 -89,134 -134,170 -411,207 -972,124 -1261,595 -35,64 48,77 97,102 284,129 840,452 937,860 505,975 -622,2035 -1518,1774 -612,-179 -930,-544 -1132,-1171 -11,-39 -27,-69 -47,-63 -393,121 -443,990 -454,1161 -7,77 -2,97 -50,148 -941,558 -1584,1386 86,2122 49,21 66,54 81,105 56,185 58,880 335,1033z"/>
  <path class="fil3 str3" d="M6372 1820l4132 0c96,-446 158,-911 191,-1389 299,0 599,0 898,1 -31,467 -86,932 -173,1388l6172 0c-90,-468 -148,-946 -179,-1426 299,0 599,0 898,0 34,491 98,969 199,1426l4104 0c100,0 182,82 182,183l0 4328c511,140 1074,241 1694,299 0,292 0,585 0,877 -614,-51 -1177,-140 -1694,-262l0 6361c518,-122 1083,-211 1699,-263 0,293 0,585 -1,877 -621,58 -1186,160 -1698,300l0 4177c0,101 -82,183 -182,183l-4064 0c-121,503 -197,1031 -234,1577 -299,-1 -599,-1 -898,-1 35,-532 101,-1061 210,-1576l-6253 0c108,515 175,1044 210,1576 -299,0 -599,0 -898,1 -37,-546 -113,-1074 -234,-1577l-4081 0c-100,0 -182,-82 -182,-183l0 -4181c-508,-139 -1067,-239 -1682,-296 0,-292 0,-584 0,-877 609,51 1168,139 1682,259l0 -6315c-512,120 -1068,207 -1674,257 0,-292 0,-584 0,-876 612,-58 1168,-157 1674,-294l0 -4371c0,-101 82,-183 182,-183zm3722 15959c-524,-1237 -1419,-2247 -2833,-2883l0 2724c0,87 72,159 159,159l2674 0zm-2833 -3855c2076,776 3220,2196 3808,3855l6865 0c587,-1654 1725,-3071 3790,-3849l0 -7008c-2130,-800 -3276,-2281 -3846,-4001l-6737 0c-568,1741 -1721,3241 -3880,4046l0 6957zm11648 3855c521,-1232 1412,-2239 2815,-2875l0 2716c0,87 -71,159 -159,159l-2656 0zm-8731 -14858c-512,1324 -1428,2407 -2917,3074l0 -2915c0,-87 72,-159 159,-159l2758 0zm8664 0c513,1301 1419,2366 2882,3027l0 -2868c0,-87 -71,-159 -159,-159l-2723 0z"/>
  <rect class="fil0 str4" transform="matrix(1.34599 -1.34599 1.34599 1.34599 12833.1 10180.1)" width="1312" height="1312"/>
 </g>
</svg>
