<?xml version="1.0" encoding="UTF-8"?>
<!DOCTYPE svg PUBLIC "-//W3C//DTD SVG 1.1//EN" "http://www.w3.org/Graphics/SVG/1.1/DTD/svg11.dtd">
<!-- Creator: CorelDRAW X8 -->
<svg xmlns="http://www.w3.org/2000/svg" xml:space="preserve" width="297mm" height="210mm" version="1.1" style="shape-rendering:geometricPrecision; text-rendering:geometricPrecision; image-rendering:optimizeQuality; fill-rule:evenodd; clip-rule:evenodd"
viewBox="0 0 29700 21000"
 xmlns:xlink="http://www.w3.org/1999/xlink">
 <defs>
  <style type="text/css">
   <![CDATA[
    .str1 {stroke:#FAA954;stroke-width:20}
    .str0 {stroke:#F4F0F1;stroke-width:20}
    .fil1 {fill:#FAA954}
    .fil0 {fill:#F4F0F1}
   ]]>
  </style>
 </defs>
 <g id="Capa_x0020_1">
  <metadata id="CorelCorpID_0Corel-Layer"/>
  <rect class="fil0 str0" transform="matrix(2.39858E-14 -0.905652 1.14279 3.02663E-14 7313.05 12982.3)" width="6985" height="13123"/>
  <rect class="fil1 str1" transform="matrix(2.27159E-15 -0.0857704 1.14279 3.02663E-14 7313.05 7255.44)" width="6985" height="13123"/>
  <rect class="fil1 str1" transform="matrix(2.27159E-15 -0.0857704 1.14279 3.02663E-14 7313.05 13006.3)" width="6985" height="13123"/>
  <rect class="fil1 str1" transform="matrix(-0.640393 -0.640393 0.640393 -0.640393 12315.1 12309.1)" width="3916" height="3916"/>
  <rect class="fil1 str1" transform="matrix(-0.640393 -0.640393 0.640393 -0.640393 17299.2 12309.1)" width="3916" height="3916"/>
  <polygon class="fil1 str1" points="22310,12309 19803,9801 22310,7294 "/>
  <polygon class="fil1 str1" points="7313,12309 9821,9801 7313,7294 "/>
 </g>
</svg>
