<?xml version="1.0" encoding="UTF-8"?>
<!DOCTYPE svg PUBLIC "-//W3C//DTD SVG 1.1//EN" "http://www.w3.org/Graphics/SVG/1.1/DTD/svg11.dtd">
<!-- Creator: CorelDRAW X8 -->
<svg xmlns="http://www.w3.org/2000/svg" xml:space="preserve" width="297mm" height="210mm" version="1.1" style="shape-rendering:geometricPrecision; text-rendering:geometricPrecision; image-rendering:optimizeQuality; fill-rule:evenodd; clip-rule:evenodd"
viewBox="0 0 29700 21000"
 xmlns:xlink="http://www.w3.org/1999/xlink">
 <defs>
  <style type="text/css">
   <![CDATA[
    .str1 {stroke:#D0968E;stroke-width:20}
    .str0 {stroke:#D4E4F1;stroke-width:20}
    .fil2 {fill:#85C6F5}
    .fil1 {fill:#D0968E}
    .fil0 {fill:#D4E4F1}
   ]]>
  </style>
 </defs>
 <g id="Capa_x0020_1">
  <metadata id="CorelCorpID_0Corel-Layer"/>
  <rect class="fil0 str0" x="4932" y="555" width="20000" height="20209"/>
  <path class="fil1" d="M16186 19627l-67 -55c123,-477 491,-1367 643,-1898 157,-295 325,-1420 64,-1603 -218,-323 -785,635 -1030,-214 -106,-244 -490,-763 -784,-672 -233,72 -648,490 -776,697 -461,744 -522,49 -917,223 -321,231 -128,1533 29,1847 120,241 643,1380 606,1573l-1486 -319c-627,-36 -471,-104 -1294,0 -776,119 -505,447 -498,970 -266,243 -690,112 -740,554l4123 11c189,-726 380,-587 805,-539 148,16 -337,-124 -213,-156 448,-115 1083,206 1102,700l4928 14c186,-609 -895,-772 -1347,-777 -202,-348 294,-421 -226,-802 -626,-457 -2198,216 -2922,446z"/>
  <path class="fil2" d="M17773 18982c168,-221 228,-537 346,-833 158,-393 317,-788 660,-1058 198,-155 833,-503 1083,-491 191,9 388,-109 743,-67 193,23 371,228 543,328 7,-429 -357,-869 -685,-1092 -568,-384 -1125,57 -1455,-40 -47,-58 -130,-864 -186,-1073 -127,-469 -649,-1204 -936,-1618 -788,-1139 -835,-1104 -1204,-2610 -186,-760 -5,-1887 -153,-2274 -235,47 -290,395 -1037,514 -548,88 -850,124 -1421,43 -827,-118 -1522,-611 -2064,-1213 -482,-534 -897,-1475 -1029,-2180 -88,-466 -107,-1024 -29,-1493 41,-240 450,-1028 330,-1157 -34,-48 -624,-170 -752,-1 -390,512 -813,1257 -916,1885 -203,1239 -247,1737 373,2858 399,723 1897,3295 2498,3768 382,427 -352,1155 513,1682 547,-1112 2996,-970 3741,-195 169,175 280,274 440,469 622,762 908,1936 779,2909 -89,667 -165,853 -424,1451 -178,411 -558,663 -889,945l-230 136c-314,370 -261,770 -296,1093 531,-51 802,181 1657,-686z"/>
  <path class="fil1" d="M13435 597c131,-1 1082,7 1280,5 119,-1 541,-46 610,10 158,126 -43,345 -51,429 -78,777 -1121,929 -1480,408l-73 -536 -38 25 -248 -341zm-4371 -42c57,5 -60,359 521,738 334,255 757,197 688,646 -33,218 -135,297 135,447 224,125 248,148 511,179 400,46 789,42 1183,-73l1358 -377 10 38c65,414 -991,1659 -556,3065 327,254 733,-174 892,-91 115,62 141,435 392,740 190,231 509,258 757,154 156,-25 573,-761 567,-929 317,-32 727,255 952,-95l-96 -1521c-19,-284 -51,-241 -233,-329 -71,-35 -167,-253 -218,-328 -129,-187 -356,-556 -86,-754l1268 185c463,188 1674,48 1845,-323 186,-127 -124,-466 -39,-650 67,-51 359,-125 567,-300 216,-181 370,-424 330,-422 -116,5 -9796,-6 -10748,0z"/>
  <path class="fil2" d="M17340 2464c-230,-366 -809,-407 -1499,-399 -270,198 -43,567 86,754 51,75 147,293 218,328 127,177 107,140 233,329l119 83c626,379 2016,1988 1591,2722 -223,257 -797,304 -936,-188 -278,514 -223,547 75,1022 130,208 135,335 34,560 -145,323 -215,853 -178,1199 223,646 888,915 1115,1097 243,194 139,903 193,1222 45,262 256,855 380,1092 204,389 1101,1445 1586,1292 -226,-362 -750,-2310 -778,-2767 -22,-361 12,-1301 75,-1647 88,-482 -72,-970 -73,-1445 -2,-1052 -790,-3227 -1458,-4126 -317,-427 -600,-583 -783,-1128z"/>
  <path class="fil2" d="M13438 18141c-1133,-146 -2111,-3115 -1242,-4416 -282,-209 -715,-357 -1221,-96 -32,-79 788,-1364 528,-2619 -60,-651 -934,-1952 -1607,-1708 59,74 68,104 111,196 283,599 235,1203 -408,1839 445,1146 403,2654 -1088,2877 -16,44 36,210 237,397 214,160 1146,585 1464,591 86,777 1584,1769 1814,2532 3,8 153,729 153,739l289 733c300,65 1225,385 1486,319 -12,-492 -184,-1045 -516,-1384z"/>
  <path class="fil1" d="M15974 11341c55,-370 -497,-1302 -114,-2068 -78,-76 -675,270 -2328,263 -67,351 397,1363 42,2180 434,-302 1987,-583 2400,-375z"/>
  <path class="fil2" d="M13446 597c10,202 50,407 140,598 912,1511 2110,-163 1748,-610 -74,0 -1754,11 -1888,12z"/>
  <path class="fil2" d="M14059 20741l417 2 1277 3c-19,-494 -59,-870 -817,-939 -544,-2 -829,250 -877,934z"/>
  <rect class="fil1 str1" x="22013" y="555" width="1023" height="20209"/>
  <rect class="fil1 str1" x="6660" y="555" width="1023" height="20209"/>
 </g>
</svg>
