<?xml version="1.0" encoding="UTF-8"?>
<!DOCTYPE svg PUBLIC "-//W3C//DTD SVG 1.1//EN" "http://www.w3.org/Graphics/SVG/1.1/DTD/svg11.dtd">
<!-- Creator: CorelDRAW X8 -->
<svg xmlns="http://www.w3.org/2000/svg" xml:space="preserve" width="297mm" height="210mm" version="1.1" style="shape-rendering:geometricPrecision; text-rendering:geometricPrecision; image-rendering:optimizeQuality; fill-rule:evenodd; clip-rule:evenodd"
viewBox="0 0 29700 21000"
 xmlns:xlink="http://www.w3.org/1999/xlink">
 <defs>
  <style type="text/css">
   <![CDATA[
    .str1 {stroke:#D8BEC7;stroke-width:20}
    .str0 {stroke:#DCE6F0;stroke-width:20}
    .fil1 {fill:#C1898E}
    .fil2 {fill:#D8BEC7}
    .fil0 {fill:#DCE6F0}
   ]]>
  </style>
 </defs>
 <g id="Capa_x0020_1">
  <metadata id="CorelCorpID_0Corel-Layer"/>
  <rect class="fil0 str0" x="5087" y="522" width="19968" height="19968"/>
  <path class="fil1" d="M16386 7958c-202,383 -1426,388 -1793,333 -192,-29 -666,-222 -808,-309 -222,-136 199,-399 349,-545 141,-139 407,-393 553,-570 281,-343 336,-355 611,-55 117,127 1075,1059 1088,1146zm842 -747c-93,-20 -989,-1031 -1156,-1195 -357,-351 -258,-293 100,-622 199,-182 402,-371 614,-554 138,-119 474,-577 625,-345 514,787 267,2518 -183,2716zm-3027 -1474c-34,155 -901,965 -1088,1155 -292,294 -375,275 -521,-169 -205,-626 -237,-1277 3,-1899 180,-466 178,-504 499,-208 139,128 1102,1072 1107,1121zm970 -2603c328,-15 641,85 933,216 551,247 314,213 54,535 -159,197 -1014,1148 -1180,1046 -165,-100 -942,-942 -1170,-1157 -533,-505 1120,-630 1363,-640zm-10103 -1156l2 1023c2107,-3 4320,-2 6407,8 204,196 366,343 564,566 -31,155 -237,404 -340,646 -143,336 -298,679 -329,1049 -154,1818 461,2303 626,2659 -94,102 -247,240 -431,418 -371,12 -6424,-3 -6491,-3l11 1054c271,-4 4288,12 4808,10 289,-1 1968,-10 2098,-13 389,-374 618,-623 719,-697 103,75 293,179 897,441 706,307 1380,286 2119,169 992,-157 1335,-462 1530,-546 128,97 555,541 651,638 2272,-7 4886,12 7159,5 2,-35 -6,-558 -5,-1061 -1473,-2 -3528,69 -6679,2 -184,-185 -210,-209 -394,-394 16,-44 52,-99 110,-176 107,-154 219,-329 299,-517 169,-401 343,-825 338,-1275 -7,-677 17,-745 -189,-1399 -69,-219 -355,-854 -461,-1065 231,-232 400,-370 563,-524 524,6 5662,8 6414,6l0 -1030c-2326,38 -4561,-9 -6891,6 -104,105 -786,781 -841,821 -593,-331 -1238,-651 -1929,-684 -730,-35 -1417,20 -2219,465 -181,100 -278,159 -408,200 -215,-224 -484,-483 -801,-803 -2149,0 -4714,-1 -6907,1z"/>
  <path class="fil0" d="M17228 7211c450,-198 697,-1929 183,-2716 -151,-232 -487,226 -625,345 -212,183 -415,372 -614,554 -358,329 -457,271 -100,622 167,164 1063,1175 1156,1195z"/>
  <path class="fil0" d="M15171 3134c-279,-21 -1896,135 -1363,640 228,215 1061,1100 1225,1201 165,-79 996,-883 1155,-1080 127,-137 546,-367 -84,-545 -292,-131 -605,-231 -933,-216z"/>
  <path class="fil0" d="M14201 5737c-5,-49 -968,-993 -1107,-1121 -321,-296 -319,-258 -499,208 -240,622 -208,1273 -3,1899 146,444 229,463 521,169 187,-190 1054,-1000 1088,-1155z"/>
  <path class="fil0" d="M16386 7958c-13,-87 -971,-1019 -1088,-1146 -275,-300 -330,-288 -611,55 -160,171 -428,415 -569,554 -150,146 -555,425 -333,561 142,87 616,280 808,309 367,55 1591,50 1793,-333z"/>
  <rect class="fil2 str1" x="5087" y="10946" width="19968" height="9544"/>
 </g>
</svg>
