<?xml version="1.0" encoding="UTF-8"?>
<!DOCTYPE svg PUBLIC "-//W3C//DTD SVG 1.1//EN" "http://www.w3.org/Graphics/SVG/1.1/DTD/svg11.dtd">
<!-- Creator: CorelDRAW X8 -->
<svg xmlns="http://www.w3.org/2000/svg" xml:space="preserve" width="297mm" height="210mm" version="1.1" style="shape-rendering:geometricPrecision; text-rendering:geometricPrecision; image-rendering:optimizeQuality; fill-rule:evenodd; clip-rule:evenodd"
viewBox="0 0 29700 21000"
 xmlns:xlink="http://www.w3.org/1999/xlink">
 <defs>
  <style type="text/css">
   <![CDATA[
    .str0 {stroke:#7A5562;stroke-width:20}
    .fil0 {fill:#7A5562}
    .fil1 {fill:#E3DEE2}
   ]]>
  </style>
 </defs>
 <g id="Capa_x0020_1">
  <metadata id="CorelCorpID_0Corel-Layer"/>
  <rect class="fil0 str0" x="4801" y="503" width="20000" height="19359"/>
  <path class="fil1" d="M12308 5254l37 985 1107 -6 8 -991 2412 56c47,100 2,861 39,957l1016 82 40 -898 144 -31 2 -38 -128 -67 18 -47 1594 -55c17,-51 66,-894 75,-1020l2228 14 -46 2163c-114,10 -1191,-32 -1201,-8l-90 1567 -36 27c-30,11 -1028,32 -1065,48l19 1104 1091 -13 43 45 -75 2414c-117,29 -828,-11 -1002,-16l-29 1102 835 39 199 156 30 1360 1054 30c-37,497 -19,1706 14,2131 -369,-1 -1593,3 -2254,18l-46 1 -19 -1213 -1391 -26c-36,-78 -58,-840 -67,-988l-1069 -16c-6,363 -21,630 -29,1085 -113,10 -270,19 -542,14 -494,-9 -1265,30 -1721,-21l-23 1c-6,-128 -61,-985 -46,-1038l-1105 -17 -80 1081 -1502 -7 -40 1148c-869,-4 -1687,-16 -2065,-34 -41,-38 -32,-2061 43,-2133 422,-33 611,-27 1006,-22 -3,-119 -5,-259 3,-373 27,-386 -43,-961 0,-1282l1099 -28 32 -1078c-636,-42 -699,-40 -1104,-57 70,-627 46,-823 52,-2520l1028 6c21,-28 55,-954 52,-1060l-1100 -113c-11,-1016 -23,-1280 -19,-1400 -80,-48 -281,-32 -1207,-39 68,-441 12,-1779 24,-2299 712,-11 1214,3 1424,2 831,-4 867,9 784,952 -10,108 -3,247 -6,358 674,3 978,4 1555,8zm-5330 2400l69 1276 1489 36 -27 2446 -56 28c-50,11 -1296,-33 -1383,-12l10 1156 -1052 31c3,1795 -53,5623 -31,6266 1999,-52 5901,10 6242,-36l39 -1186c50,11 887,-15 1011,-17l39 -1264 31 -40 2352 -17 52 36 29 1305 1079 25c-17,264 20,758 25,1046 1689,55 4171,-2 6258,26 5,-763 25,-4807 -6,-5968 -240,-34 -763,-27 -1068,-45 -8,-222 20,-861 -42,-1093l-1316 -30 30 -2468 1309 -49c-5,-280 33,-838 32,-1021 163,-23 1049,-16 1221,-41l33 -6574 -6115 1 -29 45 -11 1099 -1330 15c-8,188 31,1319 25,1420l-2414 -21 -71 -1417c-122,-3 -1016,-43 -1171,-50 5,-478 -29,-800 -41,-1207 -1774,-38 -4619,36 -6334,-9 29,1004 49,4059 74,5299 3,186 -55,796 48,909 44,48 940,57 1000,100z"/>
  <path class="fil0" d="M12359 9056c278,-66 755,-29 1078,-44 7,-93 4,-247 14,-355 41,-421 22,-621 26,-729 135,-3 189,4 756,-1 474,-4 939,23 1409,7 164,-8 254,1 367,3 -16,392 -19,799 -15,1126l1003 53 -104 2368 -1006 44c-44,111 0,865 -54,1073l-2259 4 -27 -1132c162,9 -1043,-42 -1196,-73l8 -2344zm-51 -3802c-585,-9 -859,-2 -1555,-22 1,-66 -2,-253 6,-344 29,-550 14,-712 33,-942 -153,2 -458,-12 -817,-10 -514,2 -895,-28 -1424,-24 -8,228 -30,2308 -24,2321 851,39 1001,31 1207,39 -2,105 -10,463 29,1468l1090 45c3,106 -31,1032 -52,1060l-1028 -6c-120,770 8,1715 -65,2519 372,14 510,21 1117,58l-32 1078 -1099 28c-43,321 27,896 0,1282 -7,107 -9,217 -3,373 -331,5 -608,-21 -1010,-14 -76,72 -81,2148 -40,2186 509,8 1439,16 2066,17l40 -1148 1502 7 80 -1081 1105 17c-15,53 40,910 46,1038l23 -1c456,51 1227,12 1721,21 246,4 428,-6 542,-14 5,-228 20,-723 29,-1085l1069 16c9,148 31,910 67,988l1391 26 19 1213c339,-6 1706,-18 2300,-19 -12,-270 -13,-1503 -14,-2131l-1054 -30 -30 -1360c1,-54 6,-106 -3,-149 -80,-1 -80,-5 -196,-7l-835 -39 29 -1102c174,5 885,45 1002,16l75 -2414 -43 -45 -1091 13 -19 -1104c37,-16 1035,-37 1065,-48l36 -27 88 -1545c11,-25 1089,-4 1203,-14l46 -2163 -2228 -14c-9,126 -58,969 -75,1020l-1594 55 -18 47 -18 136 -37 830 -1019 -14c-37,-96 8,-857 -39,-957l-2412 -56 -8 991 -1107 6 -37 -985z"/>
  <path class="fil1" d="M12359 9056l-8 2344c104,28 1022,64 1196,73l27 1132 2259 -4c54,-208 10,-962 54,-1073l1006 -44 104 -2368 -1003 -65c-11,-384 1,-818 15,-1114 -95,-3 -225,-8 -367,-3 -470,16 -935,-11 -1409,-7 -482,5 -678,-7 -756,1 -4,70 -4,233 -26,729 -15,162 -16,244 -14,355 -331,-1 -786,19 -1078,44z"/>
 </g>
</svg>
