<?xml version="1.0" encoding="UTF-8"?>
<!DOCTYPE svg PUBLIC "-//W3C//DTD SVG 1.1//EN" "http://www.w3.org/Graphics/SVG/1.1/DTD/svg11.dtd">
<!-- Creator: CorelDRAW X8 -->
<svg xmlns="http://www.w3.org/2000/svg" xml:space="preserve" width="297mm" height="210mm" version="1.1" style="shape-rendering:geometricPrecision; text-rendering:geometricPrecision; image-rendering:optimizeQuality; fill-rule:evenodd; clip-rule:evenodd"
viewBox="0 0 29700 21000"
 xmlns:xlink="http://www.w3.org/1999/xlink">
 <defs>
  <style type="text/css">
   <![CDATA[
    .str2 {stroke:#BDBFC1;stroke-width:7.62}
    .str1 {stroke:#A9ABAE;stroke-width:7.62}
    .str3 {stroke:#606062;stroke-width:7.62}
    .str0 {stroke:#E6E5EA;stroke-width:7.62}
    .fil1 {fill:#A9ABAE}
    .fil2 {fill:#606062}
    .fil3 {fill:#606062}
    .fil0 {fill:#E6E5EA}
   ]]>
  </style>
 </defs>
 <g id="Capa_x0020_1">
  <metadata id="CorelCorpID_0Corel-Layer"/>
  <rect class="fil0 str0" x="4840" y="660" width="20000" height="20000"/>
  <rect class="fil1 str1" x="10427" y="6246" width="8827" height="8827"/>
  <path class="fil2 str2" d="M14448 10139l46 67c35,-16 48,-30 77,-42 82,-35 21,-5 89,-21 60,-14 21,-13 87,-21 58,-8 146,-19 195,-6 60,20 152,45 219,65l297 -306c268,-322 535,-1089 466,-1467 -179,-75 -307,255 -308,-69 0,-78 -181,-570 -225,-677 -121,-294 -223,-616 -434,-574 -139,28 -309,315 -402,450 -286,416 -246,1072 -457,869 -11,-11 -24,-26 -38,-34 -99,-60 -188,62 -193,150 67,823 174,905 581,1616z"/>
  <path class="fil2 str2" d="M15512 11114c49,50 155,106 225,153 136,92 516,207 674,211 165,4 522,69 675,-47 39,-47 45,-93 -1,-139 -174,-109 -156,-50 -192,-116l16 -24c91,-95 854,-219 1144,-385 176,-101 436,-137 452,-321 15,-184 -243,-202 -474,-297 -110,-45 -799,-262 -880,-276 -92,-15 -222,6 -292,-78 26,-31 255,-148 160,-336 -76,-24 -91,-9 -349,19 -556,96 -1100,251 -1420,759 -79,164 319,188 54,607 77,127 73,171 208,270z"/>
  <path class="fil2 str2" d="M14407 11077l3 -449c-17,-185 100,-136 124,-248 11,-133 -121,-234 -204,-330 -131,-141 -212,-179 -350,-271 -103,-69 -464,-218 -578,-234 -102,-14 -121,-44 -203,-53 -77,-9 -138,-16 -211,-21 -85,-6 -128,18 -185,93 24,52 54,128 85,174 44,66 264,169 -204,247 -69,4 -664,176 -741,211 -158,70 -555,251 -491,460 51,165 426,291 542,356 176,99 617,253 836,311 252,67 47,129 22,227 -50,193 260,137 353,103 114,-41 227,-75 337,-118 138,-54 764,-391 865,-458z"/>
  <path class="fil2 str2" d="M15238 11113l-46 -6c-4,0 -9,-1 -13,-1 -79,-6 -78,5 -145,44 -183,107 -306,-1 -558,-58 -372,393 -630,932 -596,1489 11,173 62,276 137,268 44,-30 147,-83 185,-91 105,180 201,537 354,731 101,128 298,536 458,426 149,-103 197,-372 306,-571 60,-108 211,-483 237,-576 20,-73 43,-215 101,-265 117,88 118,161 232,164 102,-67 42,-219 29,-295 -35,-209 9,-146 -107,-494 -23,-70 -152,-304 -204,-381 -98,-145 -268,-250 -370,-384z"/>
  <circle class="fil0 str0" transform="matrix(1.45667 -1.45667 1.45667 1.45667 14840.5 10659.5)" r="294"/>
  <rect class="fil3 str3" x="19255" y="3744" width="2502" height="2502"/>
  <rect class="fil3 str3" x="7910" y="3744" width="2502" height="2502"/>
  <rect class="fil3 str3" x="7910" y="15061" width="2502" height="2502"/>
  <rect class="fil3 str3" x="19260" y="15061" width="2502" height="2502"/>
  <polygon class="fil3 str3" points="22329,669 24831,669 24831,3171 "/>
  <polygon class="fil3 str3" points="7354,669 4852,669 4852,3171 "/>
  <polygon class="fil3 str3" points="7354,20660 4852,20660 4852,18158 "/>
  <polygon class="fil3 str3" points="22334,20660 24836,20660 24836,18158 "/>
 </g>
</svg>
