<?xml version="1.0" encoding="UTF-8"?>
<!DOCTYPE svg PUBLIC "-//W3C//DTD SVG 1.1//EN" "http://www.w3.org/Graphics/SVG/1.1/DTD/svg11.dtd">
<!-- Creator: CorelDRAW X8 -->
<svg xmlns="http://www.w3.org/2000/svg" xml:space="preserve" width="297mm" height="210mm" version="1.1" style="shape-rendering:geometricPrecision; text-rendering:geometricPrecision; image-rendering:optimizeQuality; fill-rule:evenodd; clip-rule:evenodd"
viewBox="0 0 29700 21000"
 xmlns:xlink="http://www.w3.org/1999/xlink">
 <defs>
  <style type="text/css">
   <![CDATA[
    .fil1 {fill:none}
    .fil3 {fill:#6CAEE2}
    .fil2 {fill:#CDA05F}
    .fil0 {fill:#D2D3D8}
   ]]>
  </style>
 </defs>
 <g id="Capa_x0020_1">
  <metadata id="CorelCorpID_0Corel-Layer"/>
  <rect class="fil0" x="4280" y="593" width="20000" height="19861"/>
  <path class="fil1" d="M19605 13306c65,11 49,27 31,67 -48,-9 -60,-25 -31,-67z"/>
  <path class="fil1" d="M19605 13306c-29,42 -17,58 31,67 18,-40 34,-56 -31,-67z"/>
  <polygon class="fil2" points="9514,10544 13949,10496 8555,5127 4331,5127 "/>
  <polygon class="fil3" points="8555,5127 13949,10496 13949,5989 8651,644 "/>
  <polygon class="fil2" points="13949,10496 13949,5989 19150,644 19390,5103 "/>
  <polygon class="fil3" points="18383,10472 13949,10496 19390,5103 24228,4959 "/>
  <polygon class="fil3" points="9486,10457 13921,10479 8558,15879 4334,15903 "/>
  <polygon class="fil2" points="8558,15879 13921,10479 13946,14986 8679,20361 "/>
  <polygon class="fil3" points="13921,10479 13946,14986 19178,20302 19392,15842 "/>
  <polygon class="fil2" points="18355,10478 13921,10479 19392,15842 24232,15958 "/>
 </g>
</svg>
