<?xml version="1.0" encoding="UTF-8"?>
<!DOCTYPE svg PUBLIC "-//W3C//DTD SVG 1.1//EN" "http://www.w3.org/Graphics/SVG/1.1/DTD/svg11.dtd">
<!-- Creator: CorelDRAW X8 -->
<svg xmlns="http://www.w3.org/2000/svg" xml:space="preserve" width="297mm" height="210mm" version="1.1" style="shape-rendering:geometricPrecision; text-rendering:geometricPrecision; image-rendering:optimizeQuality; fill-rule:evenodd; clip-rule:evenodd"
viewBox="0 0 29700 21000"
 xmlns:xlink="http://www.w3.org/1999/xlink">
 <defs>
  <style type="text/css">
   <![CDATA[
    .str0 {stroke:#D2D3D8;stroke-width:20}
    .fil3 {fill:#6B8986}
    .fil1 {fill:#A34846}
    .fil0 {fill:#D2D3D8}
    .fil2 {fill:#DAB871}
   ]]>
  </style>
 </defs>
 <g id="Capa_x0020_1">
  <metadata id="CorelCorpID_0Corel-Layer"/>
  <rect class="fil0 str0" x="5335" y="283" width="19989" height="19989"/>
  <path class="fil1" d="M15322 15871c171,92 209,115 235,94 901,-172 1431,-1972 1639,-2795 304,0 572,-23 884,-16 343,8 257,-27 270,-631 4,-142 23,-769 51,-845 1357,-329 2080,-312 2731,-1396 80,-135 98,-79 -25,-236 -760,-936 -1645,-1167 -2678,-1303 -82,-20 -43,-6 -100,-42 -13,-127 -56,-1309 -82,-1340 -292,-15 -383,-32 -602,-28l-490 -8c-255,-23 -223,77 -309,-215 -150,-510 -808,-2385 -1424,-2586 -437,-142 -1545,1948 -1540,2671 1,156 7,228 -255,215 -514,25 -895,-4 -1121,37 -15,426 -22,845 -28,1272 -568,84 -2264,588 -2735,1486 -74,112 -87,82 -82,179 543,885 2453,1331 2856,1538 2,298 42,1128 41,1324 0,18 506,1 655,7 144,5 659,-36 687,57 0,3 2,8 3,11 195,742 711,2168 1419,2550z"/>
  <path class="fil2" d="M5335 283l0 6916c783,-24 3092,49 3724,39 129,-176 102,-214 161,-363l100 -182c26,-59 14,-56 55,-108l46 -71c53,-76 21,-6 77,-37 8,-157 0,-48 99,-183l378 -505c16,-18 14,-14 30,-35 8,-9 11,-14 17,-22 51,-66 102,-143 165,-190 39,-30 32,-38 56,-62 33,-34 46,-25 76,-65l171 -201c58,-68 125,-112 190,-168 9,-8 27,-24 33,-31 66,-68 -13,-34 109,-121 33,-24 51,-39 75,-66 12,-13 7,-9 18,-21l61 -54c147,-129 199,-209 410,-307 71,-34 18,-27 81,-72 69,-48 300,-211 363,-228 52,-44 294,-138 364,-179 18,-10 -12,-3421 -12,-3719 -2119,79 -4589,20 -6847,35z"/>
  <path class="fil3" d="M9049 7129c-370,6 -3712,-16 -3712,-16 -16,299 -2,592 -2,1220 23,-12 4036,18 4525,-10 495,-1419 1360,-2872 3427,-3565 56,-27 98,-10 101,-75 29,-1034 -65,-3957 -57,-4444 -361,-3 -826,6 -1173,9 -22,132 0,1778 0,1810 1,614 12,1276 -5,1882 -1841,883 -2464,1882 -3104,3189z"/>
  <path class="fil2" d="M25324 283l0 6916c-783,-24 -3092,49 -3724,39 -129,-176 -102,-214 -161,-363l-100 -182c-26,-59 -14,-56 -55,-108l-46 -71c-53,-76 -21,-6 -77,-37 -9,-157 0,-48 -99,-183l-379 -505c-15,-18 -13,-14 -29,-35 -8,-9 -11,-14 -17,-22 -51,-66 -103,-143 -166,-190 -38,-30 -31,-38 -55,-62 -34,-34 -46,-25 -76,-65l-171 -201c-58,-68 -125,-112 -190,-168 -9,-8 -27,-24 -33,-31 -66,-68 13,-34 -110,-121 -32,-24 -50,-39 -74,-66 -12,-13 -7,-9 -18,-21l-61 -54c-147,-129 -199,-209 -410,-307 -72,-34 -18,-27 -82,-72 -69,-48 -299,-211 -362,-228 -52,-44 -294,-138 -364,-179 -18,-10 12,-3421 12,-3719 2119,79 4589,20 6847,35z"/>
  <path class="fil3" d="M21609 7129c371,6 3713,-16 3713,-16 15,299 2,592 2,1220 -23,-12 -4036,18 -4525,-10 -495,-1419 -1360,-2872 -3427,-3565 -57,-27 -98,-10 -102,-75 -28,-1034 66,-3957 58,-4444 361,-3 826,6 1173,9 22,132 0,1778 0,1810 -2,614 -12,1276 5,1882 1841,883 2463,1882 3103,3189z"/>
  <path class="fil2" d="M5335 20271l0 -6903c783,24 3092,-48 3724,-39 129,176 102,214 161,363l100 181c26,59 14,56 55,107l46 71c53,77 21,7 77,38 8,156 0,48 99,183l378 504c16,17 14,13 30,34 8,9 11,14 17,22 51,66 102,143 165,190 39,29 32,38 56,62 33,34 46,25 76,64l171 201c58,68 125,112 190,168 9,8 27,24 33,31 66,68 -13,33 109,121 33,23 51,39 75,66 12,13 7,8 18,21l61 54c147,128 199,208 410,306 71,33 18,27 81,71 69,49 300,211 363,229 52,43 294,137 364,178 18,10 -12,3415 -12,3711 -2119,-78 -4589,-20 -6847,-34z"/>
  <path class="fil3" d="M9049 13438c-370,-6 -3712,16 -3712,16 -16,-299 -2,-591 -2,-1218 23,12 4036,-18 4525,10 495,1417 1360,2866 3427,3558 56,27 98,10 101,75 29,1032 -65,3950 -57,4436 -361,2 -826,-7 -1173,-10 -22,-131 0,-1774 0,-1805 1,-614 12,-1275 -5,-1879 -1841,-882 -2464,-1878 -3104,-3183z"/>
  <path class="fil2" d="M25324 20261l0 -6895c-783,25 -3092,-48 -3724,-38 -129,175 -102,214 -161,362l-100 181c-26,59 -14,56 -55,107l-46 71c-53,76 -21,7 -77,37 -9,157 0,48 -99,183l-379 503c-15,18 -13,14 -29,35 -8,9 -11,14 -17,22 -51,66 -103,142 -166,190 -38,29 -31,37 -55,61 -34,34 -46,25 -76,65l-171 201c-58,67 -125,111 -190,167 -9,8 -27,24 -33,31 -66,68 13,33 -110,121 -32,23 -50,38 -74,66 -12,12 -7,8 -18,20l-61 54c-147,129 -199,208 -410,306 -72,34 -18,27 -82,72 -69,48 -299,210 -362,227 -52,44 -294,138 -364,179 -18,10 12,3410 12,3706 2119,-78 4589,-20 6847,-34z"/>
  <path class="fil3" d="M21609 13437c371,-6 3713,15 3713,15 15,-298 2,-590 2,-1216 -23,12 -4036,-18 -4525,10 -495,1415 -1360,2863 -3427,3554 -57,27 -98,10 -102,74 -28,1031 66,3945 58,4431 361,2 826,-6 1173,-10 22,-131 0,-1772 0,-1803 -2,-613 -12,-1273 5,-1876 1841,-881 2463,-1876 3103,-3179z"/>
 </g>
</svg>
