<?xml version="1.0" encoding="UTF-8"?>
<!DOCTYPE svg PUBLIC "-//W3C//DTD SVG 1.1//EN" "http://www.w3.org/Graphics/SVG/1.1/DTD/svg11.dtd">
<!-- Creator: CorelDRAW X8 -->
<svg xmlns="http://www.w3.org/2000/svg" xml:space="preserve" width="297mm" height="210mm" version="1.1" style="shape-rendering:geometricPrecision; text-rendering:geometricPrecision; image-rendering:optimizeQuality; fill-rule:evenodd; clip-rule:evenodd"
viewBox="0 0 29700 21000"
 xmlns:xlink="http://www.w3.org/1999/xlink">
 <defs>
  <style type="text/css">
   <![CDATA[
    .str0 {stroke:#FFF688;stroke-width:20}
    .fil0 {fill:#FFF688}
    .fil2 {fill:#BDF1DB}
    .fil1 {fill:#FAA981}
    .fil3 {fill:#FDFEFA}
   ]]>
  </style>
 </defs>
 <g id="Capa_x0020_1">
  <metadata id="CorelCorpID_0Corel-Layer"/>
  <rect class="fil0 str0" x="5103" y="218" width="20000" height="20240"/>
  <path class="fil1" d="M13914 10934c-274,-1619 2144,-1868 2345,-307 187,1449 -2068,1943 -2345,307zm-133 6141c-466,-566 -790,-757 -901,-1562 -193,-1389 1166,-2424 2489,-2257 1325,167 2417,1504 1700,2773 -268,475 -799,900 -1187,1279 -1071,1046 -933,1188 -2101,-233zm147 -11870c-1110,-1338 -922,-2593 631,-3076 773,-241 1365,-365 2085,2 501,255 1217,1332 1207,1895 -34,1978 -1821,2335 -2430,3825 -539,1320 10,-55 -658,-809 -478,-540 -434,-1353 -835,-1837zm-1181 13732c-501,644 -774,718 -768,1521 1916,0 3970,0 5886,0 139,-681 -484,-1014 -742,-1461l279 -62c-234,-528 -1414,-703 112,-1864 1398,-1271 1022,-2865 308,-3601 -243,-273 -1500,-959 -1502,-963 20,-191 581,-532 771,-1085 128,-986 -128,-1215 -223,-1463 36,-67 1342,-444 1084,-1457 -95,-49 -808,1050 -1403,242 -330,-447 159,-1215 515,-1505 741,-601 1505,-1231 1952,-2114 286,-1356 -274,-2699 -1082,-3206 -442,-448 -1219,-620 -76,-901 461,-113 1344,-86 1462,-800l-8236 0c0,778 1564,673 2199,829 -184,347 -683,505 -965,886 -229,308 -587,741 -750,1074 -679,1392 108,2795 1161,3722 256,224 869,423 1034,791 599,1338 -341,1901 -1227,918 -72,127 140,755 331,873 100,215 702,430 707,434 58,125 -440,674 -419,1309 22,663 718,1235 733,1295 -525,557 -1917,501 -2096,3035 133,732 416,1148 798,1565 406,442 863,521 846,1061 -196,633 -864,545 -924,872 -10,9 128,19 235,55z"/>
  <path class="fil1" d="M9488 218l-4385 0 0 1397c1880,66 3208,1964 2449,3794 -324,781 -975,1211 -1611,1708 -558,436 -958,1808 -771,2459 616,47 1054,667 1028,1261 -46,1026 -927,945 -1073,1143l-22 565 0 113 29 508c831,77 1163,9 1827,662 589,578 697,1005 539,1823 -116,600 -1953,2489 -2395,2643l0 1477 0 687 994 0 2323 0 518 2c-97,-592 -324,-632 -827,-802 228,-230 261,-573 173,-786 -327,123 -502,334 -1016,-185 -299,-303 -334,-705 -129,-1075 254,-455 1053,-994 1351,-1556 381,-721 302,-1664 -13,-2390 -357,-820 -1075,-898 -1552,-1352 12,-313 433,-748 382,-1419 -46,-617 -579,-1080 -587,-1211 48,-177 1443,-450 977,-1391 -279,1206 -2029,313 -1040,-916 490,-610 1247,-906 1885,-1830 1681,-2431 -1823,-4426 -1735,-4662 321,-533 2661,243 2681,-667z"/>
  <path class="fil2" d="M12979 5789c374,484 1014,989 1460,1529 623,753 641,1853 1144,533 568,-1490 2236,-1847 2268,-3825 -39,-855 -659,-1640 -1127,-1895 -672,-367 -1648,-486 -2370,-246 -1448,484 -2411,2566 -1375,3904z"/>
  <path class="fil2" d="M14961 18590c81,27 1968,-2312 2108,-2561 717,-1269 -375,-2606 -1700,-2773 -1323,-167 -2682,868 -2489,2257 111,805 435,996 901,1562 161,196 1103,1488 1180,1515z"/>
  <path class="fil2" d="M5170 9576c-187,-651 213,-2023 771,-2459 636,-497 1287,-927 1611,-1708 759,-1830 -569,-3728 -2449,-3794l0 7907 67 54z"/>
  <path class="fil2" d="M5103 12658l0 5636c442,-154 2279,-2043 2395,-2643 158,-818 50,-1245 -539,-1823 -664,-653 -996,-585 -1827,-662l-29 -508z"/>
  <path class="fil3" d="M13914 10934c277,1636 2532,1142 2345,-307 -201,-1561 -2619,-1312 -2345,307z"/>
  <path class="fil3" d="M5170 9576l-67 -54 0 3023 22 -565c146,-198 1027,-117 1073,-1143 26,-594 -412,-1214 -1028,-1261z"/>
  <path class="fil1" d="M20718 218l4385 0 0 1397c-1880,66 -3209,1964 -2449,3794 324,781 974,1211 1611,1708 557,436 958,1808 771,2459 -616,47 -1054,667 -1028,1261 46,1026 927,945 1073,1143l22 565 0 113 -29 508c-832,77 -1164,9 -1827,662 -589,578 -697,1005 -539,1823 116,600 1953,2489 2395,2643l0 1477 0 687 -994 0 -2323 0 -518 2c97,-592 324,-632 827,-802 -228,-230 -261,-573 -173,-786 326,123 502,334 1015,-185 300,-303 335,-705 130,-1075 -254,-455 -1053,-994 -1351,-1556 -381,-721 -302,-1664 13,-2390 357,-820 1075,-898 1552,-1352 -12,-313 -434,-748 -383,-1419 47,-617 580,-1080 588,-1211 -48,-177 -1443,-450 -977,-1391 279,1206 2029,313 1040,-916 -491,-610 -1247,-906 -1886,-1830 -1680,-2431 1823,-4426 1735,-4662 -320,-533 -2660,243 -2680,-667z"/>
  <path class="fil2" d="M25036 9576c187,-651 -214,-2023 -771,-2459 -637,-497 -1287,-927 -1611,-1708 -760,-1830 569,-3728 2449,-3794l0 7907 -67 54z"/>
  <path class="fil2" d="M25103 12658l0 5636c-442,-154 -2279,-2043 -2395,-2643 -158,-818 -50,-1245 539,-1823 663,-653 995,-585 1827,-662l29 -508z"/>
  <path class="fil3" d="M25036 9576l67 -54 0 3023 -22 -565c-146,-198 -1027,-117 -1073,-1143 -26,-594 412,-1214 1028,-1261z"/>
 </g>
</svg>
