<?xml version="1.0" encoding="UTF-8"?>
<!DOCTYPE svg PUBLIC "-//W3C//DTD SVG 1.1//EN" "http://www.w3.org/Graphics/SVG/1.1/DTD/svg11.dtd">
<!-- Creator: CorelDRAW X8 -->
<svg xmlns="http://www.w3.org/2000/svg" xml:space="preserve" width="297mm" height="210mm" version="1.1" style="shape-rendering:geometricPrecision; text-rendering:geometricPrecision; image-rendering:optimizeQuality; fill-rule:evenodd; clip-rule:evenodd"
viewBox="0 0 29700 21000"
 xmlns:xlink="http://www.w3.org/1999/xlink">
 <defs>
  <style type="text/css">
   <![CDATA[
    .str0 {stroke:#E6E7E8;stroke-width:20}
    .str1 {stroke:#E6E7E8;stroke-width:7.62}
    .fil0 {fill:#E6E7E8}
    .fil1 {fill:#79C1CE}
    .fil2 {fill:#B48B90}
   ]]>
  </style>
 </defs>
 <g id="Capa_x0020_1">
  <metadata id="CorelCorpID_0Corel-Layer"/>
  <rect class="fil0 str0" x="5008" y="303" width="20000" height="20000"/>
  <path class="fil1" d="M5732 303l-724 0 0 232 0 3021c632,-76 1168,-23 1789,-29 609,-7 1234,-2 1839,-18 290,-7 591,26 865,10 211,-12 728,-34 918,0 274,49 396,235 424,504 27,259 -154,504 -169,764 -29,514 534,763 947,875 506,138 1008,257 1531,309 1062,106 2189,-53 3203,-375 392,-124 934,-373 1300,-557 502,-250 195,-809 671,-1185 426,-337 975,-273 1479,-378 1075,-225 2515,-802 2276,828 -39,270 -72,543 -115,812 -42,264 -120,512 -163,773 -92,553 24,1001 -474,1384 -465,359 -816,307 -1363,221 -143,255 -238,461 -329,741 -86,264 -96,512 -174,770 -202,670 -192,1225 -255,1902 -70,765 7,1173 115,1907 78,528 220,1155 582,1569 486,555 1024,-362 1595,29 442,303 293,1294 288,1844 -7,705 77,1396 68,2089 -5,357 -8,739 4,1095 11,311 58,534 45,863l3103 0 0 -20000 -19276 0z"/>
  <path class="fil2" d="M20687 20303l1218 0c13,-329 -34,-552 -45,-863 -12,-356 -9,-738 -4,-1095 9,-693 -75,-1384 -68,-2089 5,-550 154,-1541 -288,-1844 -571,-391 -1109,526 -1595,-29 -362,-414 -504,-1041 -582,-1569 -108,-734 -185,-1142 -115,-1907 63,-677 53,-1232 255,-1902 78,-258 88,-506 174,-770 91,-280 186,-486 329,-741 547,86 898,138 1363,-221 498,-383 382,-831 474,-1384 43,-261 121,-509 163,-773 43,-269 76,-542 115,-812 239,-1630 -1201,-1053 -2276,-828 -504,105 -1053,41 -1479,378 -476,376 -169,935 -671,1185 -366,184 -908,433 -1300,557 -1014,322 -2141,481 -3203,375 -523,-52 -1025,-171 -1531,-309 -413,-112 -976,-361 -947,-875 15,-260 196,-505 169,-764 -28,-269 -150,-455 -424,-504 -190,-34 -707,-12 -918,0 -274,16 -575,-17 -865,-10 -605,16 -1230,11 -1839,18 -621,6 -1157,-47 -1789,29l0 1025 4588 -51c303,261 -119,1431 1691,2047 1075,366 1793,618 2971,610 1195,-9 2122,-268 3241,-659 313,-110 980,-449 1210,-668 611,-587 294,-975 430,-1307l1620 1 52 82 -35 1561c-956,438 -437,-551 -1474,709 -496,601 -717,1144 -1051,1831 -535,1099 -592,3016 -258,4180 132,458 427,1593 715,1901 240,258 609,599 933,733 384,159 914,85 965,541 127,1146 83,3013 81,4211z"/>
  <path class="fil0 str1" d="M5008 20303l4280 0 -449 -1915 -34 9c-375,-155 -1001,492 -1585,-291 -637,-854 25,-1314 -43,-1577l17 -94 -2186 -305 0 4173z"/>
  <path class="fil1" d="M15354 8241c-30,-5 -1213,363 -1335,403 -399,133 -1188,190 -1622,212 -2628,132 -4015,-861 -4358,-2821 -325,507 -480,1354 -308,2149l-727 647 69 92c2703,1983 5626,1003 8281,-682z"/>
  <path class="fil2" d="M16322 9649c-413,-289 -445,-316 -638,-466 -1179,1208 -2960,2903 -3604,3474 -492,401 -802,-74 -1490,-273 -879,-254 -2148,190 -1453,614 303,184 588,88 910,116 445,38 1210,286 1481,651 310,322 605,570 663,1150 114,465 -218,1433 334,1493 1076,-60 304,-2597 132,-2826 925,-995 2738,-2876 3665,-3933z"/>
  <path class="fil1" d="M5008 16130l2186 305 -17 94c68,263 -594,723 43,1577 584,783 1210,136 1585,291l34 -9 449 1915 977 0 -657 -3110c-597,147 -1053,602 -1600,13 -501,-541 140,-1138 297,-1523l-3297 -514 0 961z"/>
  <path class="fil2" d="M12739 17443c-61,-1278 -1799,-1014 -1767,-25 -100,1157 1821,1123 1767,25z"/>
  <path class="fil2" d="M8043 12553c-1176,24 -1188,1630 -60,1664 1175,36 1094,-1789 60,-1664z"/>
  <path class="fil1" d="M17017 9830c5,30 -340,1220 -378,1342 -125,402 -168,1192 -182,1627 -81,2629 937,3998 2903,4303 -501,334 -1345,505 -2143,349l-632 739 -94 -68c-2033,-2665 -1109,-5605 526,-8292z"/>
 </g>
</svg>
