<?xml version="1.0" encoding="UTF-8"?>
<!DOCTYPE svg PUBLIC "-//W3C//DTD SVG 1.1//EN" "http://www.w3.org/Graphics/SVG/1.1/DTD/svg11.dtd">
<!-- Creator: CorelDRAW X8 -->
<svg xmlns="http://www.w3.org/2000/svg" xml:space="preserve" width="297mm" height="210mm" version="1.1" style="shape-rendering:geometricPrecision; text-rendering:geometricPrecision; image-rendering:optimizeQuality; fill-rule:evenodd; clip-rule:evenodd"
viewBox="0 0 29700 21000"
 xmlns:xlink="http://www.w3.org/1999/xlink">
 <defs>
  <style type="text/css">
   <![CDATA[
    .str0 {stroke:#E6E7E8;stroke-width:20}
    .str1 {stroke:#C36867;stroke-width:7.62}
    .fil0 {fill:#E6E7E8}
    .fil2 {fill:#BD7D7A}
    .fil3 {fill:#C36867}
    .fil1 {fill:#D6B2B1}
    .fil4 {fill:#E2DCDC}
   ]]>
  </style>
 </defs>
 <g id="Capa_x0020_1">
  <metadata id="CorelCorpID_0Corel-Layer"/>
  <rect class="fil0 str0" x="5500" y="1000" width="20000" height="19373"/>
  <path class="fil1" d="M13358 20385l896 0c760,-1389 716,-2070 341,-3539 -173,-678 -231,-1295 -948,-634 -397,366 -1087,552 -1518,155 -936,-861 -516,-2236 358,-2956 432,-355 1011,-761 1590,-535 838,327 547,943 850,1110 299,-657 562,-1716 470,-2442 -39,-304 -77,-619 257,-760 523,-222 1327,-12 2365,-547 119,-62 220,-139 334,-208 150,-131 167,-170 216,-319 -1446,43 -1942,-1573 -817,-2472 420,-336 799,-589 1344,-676 565,-89 1466,-49 1867,423 740,873 -343,1292 -356,1484 -22,307 1465,509 1707,516 784,21 837,-69 1531,-222 351,-76 537,-240 845,-338 547,-174 807,-268 810,-337l-2 -1383c-736,333 -544,857 -1485,1204 -480,177 -1470,128 -1913,-136 -210,-125 460,-983 -122,-1780 -731,-1000 -2550,-1502 -3703,-1285 -449,84 -1351,467 -1701,752 -751,611 -1348,1526 -892,2499 148,317 301,288 537,509 -167,286 -592,820 -874,959 -196,96 -432,204 -641,264 -34,10 -467,120 -472,133l-45 -9c-349,1800 -190,1426 -1027,2540 -213,-965 -1083,-1193 -1869,-751 -430,241 -626,535 -865,954 -438,768 -683,1715 -571,2598 187,1478 1965,4247 3282,2380 181,253 244,186 410,563 123,278 151,524 143,828 -18,736 -118,825 -332,1458z"/>
  <path class="fil1" d="M9934 18417c36,66 -11,-19 0,0zm-525 -452c44,-2 -38,2 0,0zm13616 -11531c34,-34 45,-31 0,0zm-11152 12365c-830,103 -973,148 -1913,-392 -572,-329 -825,-915 -1074,-1493 -341,-795 -498,-2009 -416,-2867 -62,-834 598,-2471 961,-3012 334,-497 733,-922 1281,-1180 880,-415 1734,-197 1815,67 44,-20 84,-52 120,-101 470,-629 -219,-1439 1120,-1457 550,-112 647,-252 665,-438 -376,6 -315,-638 -333,-1024 -60,-1332 1423,-2278 2534,-2621 2393,-739 6509,-437 6493,2893 860,-983 703,-1721 -149,-2661 -535,-591 -1620,-1159 -2391,-1364 -1923,-512 -4157,-754 -6032,48 -496,211 -812,437 -1180,828 -527,560 0,772 20,1401 34,1079 -499,1961 -1231,2705 -747,757 -1788,1003 -2803,740 -469,-121 -755,353 -1008,673 -2455,3108 -803,8899 2054,9911 322,42 466,69 847,-23 177,-72 579,-472 620,-633z"/>
  <path class="fil2" d="M20916 15380c743,-109 1064,60 1319,623 141,313 227,593 224,937 -5,462 -249,314 -644,252 -682,-105 -1020,-260 -1471,-783 -395,-460 -89,-932 572,-1029zm-3148 768c131,19 958,-282 1238,-256 669,61 1130,698 738,1235 -188,256 -408,295 -706,250 -192,-30 -1792,-21 -2005,113 -4,3 -307,280 -335,309 -247,251 186,483 324,766 97,199 -232,619 -331,860 -59,144 -158,286 -224,434 -95,210 -30,377 -68,526l1527 0c-465,-400 105,-1240 508,-1493 577,-361 814,-540 1546,-544 728,-5 1174,198 1770,234 956,56 794,-397 1267,-822 240,-216 389,-19 624,-324 209,-270 268,-638 203,-969 -128,-654 -545,-1051 -548,-1801 -3,-752 54,-1031 507,-1640 504,-677 1058,-504 1697,-510l0 -1451c-661,-14 -889,-10 -1482,292 -540,276 -667,-266 -1076,-73 -292,139 -574,580 -668,880 -187,595 -144,523 41,1082 125,376 184,841 -75,1174 -223,288 -615,524 -974,325 -815,-452 -66,-1648 -190,-2311 -58,-310 -454,-708 -764,-765 -461,-85 -312,293 -809,278 -1332,-39 -1928,191 -2406,1367 -227,557 -87,651 -11,1183 80,565 -369,460 -231,1025 113,463 492,577 913,626z"/>
  <path class="fil1" d="M10672 5357c652,85 1294,-373 1439,-1013 65,-286 -83,-723 -340,-883 -507,-316 -468,163 -532,420 -191,754 -1199,895 -1560,39 -604,-1434 1593,-2193 2846,-986 274,264 345,529 788,322 288,-134 541,-376 750,-612 363,-411 633,-1108 687,-1644l-703 5c0,380 -814,1811 -1344,1250 -991,-1047 -3070,-1085 -3569,101 -179,426 -228,730 -186,1190 78,837 887,1701 1724,1811zm-2686 -832c739,48 1444,268 1944,932 193,393 318,806 116,1228 -601,1256 -1941,598 -1860,89 470,-78 920,-356 876,-894 -43,-532 -439,-631 -834,-773 -407,-146 -935,283 -1085,647 -78,190 -213,909 -195,1089 45,452 285,858 575,1191 266,307 881,642 631,1040 -242,387 -544,618 -929,856 -237,147 -1527,576 -1715,435l-10 -595c1,0 2306,-443 1557,-1168 -630,-611 -861,-1163 -950,-2035 -65,-639 336,-1334 851,-1691 411,-284 522,-320 1028,-351z"/>
  <path class="fil3 str1" d="M5500 1000l0 3001c781,78 1632,23 2152,-683 750,-1021 421,-2270 448,-2318l-2600 0z"/>
  <path class="fil4" d="M20859 15072c-661,97 -910,877 -515,1337 451,523 789,678 1471,783 395,62 639,210 644,-252 3,-344 -83,-624 -224,-937 -255,-563 -633,-1040 -1376,-931z"/>
  <path class="fil2" d="M23226 20385l2274 0 0 -2290c-593,283 -1961,589 -2274,2290z"/>
  <path class="fil3 str1" d="M11577 6105c-80,97 -497,125 -634,194 -410,207 -253,284 -291,722 -27,320 -235,502 -32,753 125,154 441,218 669,218 2006,-2 800,-2512 288,-1887z"/>
 </g>
</svg>
