<?xml version="1.0" encoding="UTF-8"?>
<!DOCTYPE svg PUBLIC "-//W3C//DTD SVG 1.1//EN" "http://www.w3.org/Graphics/SVG/1.1/DTD/svg11.dtd">
<!-- Creator: CorelDRAW X8 -->
<svg xmlns="http://www.w3.org/2000/svg" xml:space="preserve" width="297mm" height="210mm" version="1.1" style="shape-rendering:geometricPrecision; text-rendering:geometricPrecision; image-rendering:optimizeQuality; fill-rule:evenodd; clip-rule:evenodd"
viewBox="0 0 29700 21000"
 xmlns:xlink="http://www.w3.org/1999/xlink">
 <defs>
  <style type="text/css">
   <![CDATA[
    .str1 {stroke:#C36867;stroke-width:20}
    .str0 {stroke:#E2B2B2;stroke-width:20}
    .str3 {stroke:#E6E5EA;stroke-width:20}
    .str2 {stroke:#F4F0F1;stroke-width:20}
    .fil1 {fill:#C36867}
    .fil0 {fill:#E2B2B2}
    .fil3 {fill:#E6E5EA}
    .fil2 {fill:#F4F0F1}
   ]]>
  </style>
 </defs>
 <g id="Capa_x0020_1">
  <metadata id="CorelCorpID_0Corel-Layer"/>
  <rect class="fil0 str0" x="4500" y="234" width="20000" height="20266"/>
  <polygon class="fil1 str1" points="9074,234 19758,234 22195,2714 24500,5060 24500,15822 22059,18221 19740,20500 8926,20500 6553,18085 4500,15996 4500,4729 6688,2579 "/>
  <polygon class="fil0 str0" points="6270,6960 8673,4598 11076,2237 14445,2266 17814,2295 20175,4698 22537,7101 22507,10471 22478,13840 20075,16201 17672,18563 14303,18533 10934,18504 8572,16101 6211,13698 6240,10329 "/>
  <polygon class="fil2 str2" points="8167,7765 10007,5956 11848,4147 14428,4170 17009,4192 18817,6033 20626,7874 20603,10454 20581,13034 18740,14843 16900,16652 14319,16629 11739,16607 9930,14766 8122,12926 8144,10345 "/>
  <path class="fil3 str3" d="M5071 5596c399,454 799,909 1199,1364 1602,-1575 3204,-3149 4806,-4723 -442,-510 -830,-957 -1272,-1467 -528,564 -1111,1065 -1640,1628 876,823 562,1367 208,1768 -455,401 -1015,412 -1678,-201 -541,544 -1082,1087 -1623,1631z"/>
  <path class="fil3 str3" d="M23769 5768c-408,448 -816,895 -1224,1342 -1573,-1603 -3146,-3206 -4720,-4809 451,-501 847,-941 1298,-1443 518,573 1092,1084 1610,1657 -890,808 -586,1357 -240,1764 448,409 1008,431 1682,-170 531,553 1062,1106 1594,1659z"/>
  <path class="fil3 str3" d="M4985 15023c409,-446 817,-893 1226,-1340 1570,1606 3141,3211 4712,4817 -452,500 -848,940 -1300,1441 -517,-574 -1090,-1086 -1607,-1660 891,-806 588,-1356 242,-1763 -447,-410 -1007,-432 -1682,167 -530,-554 -1061,-1108 -1591,-1662z"/>
  <path class="fil3 str3" d="M23716 15191c-398,-456 -796,-912 -1193,-1368 -1609,1568 -3217,3135 -4825,4703 439,512 825,960 1265,1472 531,-562 1116,-1060 1647,-1621 -872,-827 -556,-1370 -201,-1769 457,-399 1016,-408 1677,207 544,-541 1087,-1083 1630,-1624z"/>
 </g>
</svg>
